<svg width="473" height="209" viewBox="0 0 473 209" fill="none" xmlns="http://www.w3.org/2000/svg">
<rect width="473" height="209" fill="#F3F3F3"/>
<path d="M30.9697 69.0708H26.3481V72.8501H31.7168V74H24.9419V63.3359H31.6436V64.4932H26.3481V67.9209H30.9697V69.0708ZM34.7271 74H33.3721V62.75H34.7271V74ZM41.8975 66.0752L41.9341 66.9541C42.5151 66.2705 43.2988 65.9287 44.2852 65.9287C45.3936 65.9287 46.1479 66.3535 46.5483 67.2031C46.812 66.8223 47.1538 66.5146 47.5737 66.2803C47.9985 66.0459 48.499 65.9287 49.0752 65.9287C50.8135 65.9287 51.6973 66.8491 51.7266 68.6899V74H50.3716V68.7705C50.3716 68.2041 50.2422 67.7817 49.9834 67.5034C49.7246 67.2202 49.29 67.0786 48.6797 67.0786C48.1768 67.0786 47.7593 67.23 47.4272 67.5327C47.0952 67.8306 46.9023 68.2334 46.8486 68.7412V74H45.4863V68.8071C45.4863 67.6548 44.9224 67.0786 43.7944 67.0786C42.9058 67.0786 42.2979 67.457 41.9707 68.2139V74H40.6157V66.0752H41.8975ZM58.6699 73.2163C58.1426 73.8364 57.3687 74.1465 56.3481 74.1465C55.5034 74.1465 54.8589 73.9023 54.4146 73.4141C53.9751 72.9209 53.7529 72.1934 53.748 71.2314V66.0752H55.103V71.1948C55.103 72.396 55.5913 72.9966 56.5679 72.9966C57.603 72.9966 58.2915 72.6108 58.6333 71.8394V66.0752H59.9883V74H58.6992L58.6699 73.2163ZM63.3354 66.0752L63.3794 67.0713C63.9849 66.3096 64.7759 65.9287 65.7524 65.9287C67.4272 65.9287 68.272 66.8735 68.2866 68.7632V74H66.9316V68.7559C66.9268 68.1846 66.7949 67.7622 66.5361 67.4888C66.2822 67.2153 65.8843 67.0786 65.3423 67.0786C64.9028 67.0786 64.5171 67.1958 64.1851 67.4302C63.853 67.6646 63.5942 67.9722 63.4087 68.353V74H62.0537V66.0752H63.3354ZM70.0005 69.9717C70.0005 68.7559 70.2886 67.7793 70.8647 67.042C71.4409 66.2998 72.1953 65.9287 73.1279 65.9287C74.0557 65.9287 74.7905 66.2461 75.3325 66.8809V62.75H76.6875V74H75.4424L75.3765 73.1504C74.8345 73.8145 74.0801 74.1465 73.1133 74.1465C72.1953 74.1465 71.4458 73.7705 70.8647 73.0186C70.2886 72.2666 70.0005 71.2852 70.0005 70.0742V69.9717ZM71.3555 70.1255C71.3555 71.0239 71.541 71.7271 71.9121 72.2349C72.2832 72.7427 72.7959 72.9966 73.4502 72.9966C74.3096 72.9966 74.937 72.6108 75.3325 71.8394V68.1992C74.9272 67.4521 74.3047 67.0786 73.4648 67.0786C72.8008 67.0786 72.2832 67.335 71.9121 67.8477C71.541 68.3604 71.3555 69.1196 71.3555 70.1255ZM78.438 69.9644C78.438 69.188 78.5894 68.4897 78.8921 67.8696C79.1997 67.2495 79.6245 66.771 80.1665 66.4341C80.7134 66.0972 81.3359 65.9287 82.0342 65.9287C83.1133 65.9287 83.9849 66.3022 84.6489 67.0493C85.3179 67.7964 85.6523 68.79 85.6523 70.0303V70.1255C85.6523 70.897 85.5034 71.5903 85.2056 72.2056C84.9126 72.8159 84.4902 73.292 83.9385 73.6338C83.3916 73.9756 82.7617 74.1465 82.0488 74.1465C80.9746 74.1465 80.103 73.7729 79.4341 73.0259C78.77 72.2788 78.438 71.29 78.438 70.0596V69.9644ZM79.8003 70.1255C79.8003 71.0044 80.0029 71.71 80.4082 72.2422C80.8184 72.7744 81.3652 73.0405 82.0488 73.0405C82.7373 73.0405 83.2842 72.772 83.6895 72.2349C84.0947 71.6929 84.2974 70.936 84.2974 69.9644C84.2974 69.0952 84.0898 68.3921 83.6748 67.855C83.2646 67.313 82.7178 67.042 82.0342 67.042C81.3652 67.042 80.8257 67.3081 80.4155 67.8403C80.0054 68.3726 79.8003 69.1343 79.8003 70.1255ZM94.3608 74.1465C93.2866 74.1465 92.4126 73.7949 91.7388 73.0918C91.0649 72.3838 90.728 71.439 90.728 70.2573V70.0083C90.728 69.2222 90.877 68.5215 91.1748 67.9062C91.4775 67.2861 91.8975 66.8027 92.4346 66.4561C92.9766 66.1045 93.5625 65.9287 94.1924 65.9287C95.2227 65.9287 96.0234 66.2681 96.5947 66.9468C97.166 67.6255 97.4517 68.5972 97.4517 69.8618V70.4258H92.083C92.1025 71.207 92.3296 71.8394 92.7642 72.3228C93.2036 72.8013 93.7603 73.0405 94.4341 73.0405C94.9126 73.0405 95.3179 72.9429 95.6499 72.7476C95.9819 72.5522 96.2725 72.2935 96.5215 71.9712L97.3491 72.6157C96.6851 73.6362 95.689 74.1465 94.3608 74.1465ZM94.1924 67.042C93.6455 67.042 93.1865 67.2422 92.8154 67.6426C92.4443 68.0381 92.2148 68.5947 92.127 69.3125H96.0967V69.21C96.0576 68.5215 95.8721 67.9893 95.54 67.6133C95.208 67.2324 94.7588 67.042 94.1924 67.042ZM103.641 71.8979C103.641 71.5317 103.501 71.2485 103.223 71.0483C102.95 70.8433 102.469 70.6675 101.78 70.521C101.097 70.3745 100.552 70.1987 100.147 69.9937C99.7466 69.7886 99.4487 69.5444 99.2534 69.2612C99.063 68.978 98.9678 68.6411 98.9678 68.2505C98.9678 67.6011 99.2412 67.0518 99.7881 66.6025C100.34 66.1533 101.043 65.9287 101.897 65.9287C102.796 65.9287 103.523 66.1606 104.08 66.6245C104.642 67.0884 104.922 67.6816 104.922 68.4043H103.56C103.56 68.0332 103.401 67.7134 103.084 67.4448C102.771 67.1763 102.376 67.042 101.897 67.042C101.404 67.042 101.019 67.1494 100.74 67.3643C100.462 67.5791 100.323 67.8599 100.323 68.2065C100.323 68.5337 100.452 68.7803 100.711 68.9463C100.97 69.1123 101.436 69.271 102.11 69.4224C102.789 69.5737 103.338 69.7544 103.758 69.9644C104.178 70.1743 104.488 70.4282 104.688 70.7261C104.893 71.019 104.996 71.3779 104.996 71.8027C104.996 72.5107 104.712 73.0796 104.146 73.5093C103.58 73.9341 102.845 74.1465 101.941 74.1465C101.307 74.1465 100.745 74.0342 100.257 73.8096C99.7686 73.585 99.3853 73.2725 99.1069 72.8721C98.8335 72.4668 98.6968 72.0298 98.6968 71.561H100.052C100.076 72.0151 100.257 72.3765 100.594 72.645C100.936 72.9087 101.385 73.0405 101.941 73.0405C102.454 73.0405 102.864 72.938 103.172 72.7329C103.484 72.5229 103.641 72.2446 103.641 71.8979ZM108.599 64.1562V66.0752H110.079V67.1226H108.599V72.0371C108.599 72.3545 108.665 72.5938 108.797 72.7549C108.929 72.9111 109.153 72.9893 109.471 72.9893C109.627 72.9893 109.842 72.96 110.115 72.9014V74C109.759 74.0977 109.412 74.1465 109.075 74.1465C108.47 74.1465 108.013 73.9634 107.706 73.5972C107.398 73.231 107.244 72.7109 107.244 72.0371V67.1226H105.801V66.0752H107.244V64.1562H108.599ZM116.561 74C116.482 73.8438 116.419 73.5654 116.37 73.165C115.74 73.8193 114.988 74.1465 114.114 74.1465C113.333 74.1465 112.691 73.9268 112.188 73.4873C111.69 73.043 111.441 72.4814 111.441 71.8027C111.441 70.9775 111.753 70.3379 112.378 69.8838C113.008 69.4248 113.892 69.1953 115.03 69.1953H116.348V68.5728C116.348 68.0991 116.207 67.7231 115.923 67.4448C115.64 67.1616 115.223 67.02 114.671 67.02C114.188 67.02 113.782 67.1421 113.455 67.3862C113.128 67.6304 112.964 67.9258 112.964 68.2725H111.602C111.602 67.877 111.741 67.4961 112.02 67.1299C112.303 66.7588 112.684 66.4658 113.162 66.251C113.646 66.0361 114.175 65.9287 114.751 65.9287C115.665 65.9287 116.38 66.1582 116.897 66.6172C117.415 67.0713 117.684 67.6987 117.703 68.4995V72.147C117.703 72.8745 117.796 73.4531 117.981 73.8828V74H116.561ZM114.312 72.9673C114.737 72.9673 115.14 72.8574 115.521 72.6377C115.901 72.418 116.177 72.1323 116.348 71.7808V70.1548H115.286C113.626 70.1548 112.796 70.6406 112.796 71.6123C112.796 72.0371 112.938 72.3691 113.221 72.6084C113.504 72.8477 113.868 72.9673 114.312 72.9673ZM126.727 73.0405C127.21 73.0405 127.632 72.894 127.994 72.6011C128.355 72.3081 128.555 71.9419 128.594 71.5024H129.876C129.852 71.9565 129.695 72.3887 129.407 72.7988C129.119 73.209 128.733 73.5361 128.25 73.7803C127.771 74.0244 127.264 74.1465 126.727 74.1465C125.647 74.1465 124.788 73.7876 124.148 73.0698C123.514 72.3472 123.196 71.3608 123.196 70.1108V69.8838C123.196 69.1123 123.338 68.4263 123.621 67.8257C123.904 67.2251 124.31 66.7588 124.837 66.4268C125.369 66.0947 125.997 65.9287 126.719 65.9287C127.608 65.9287 128.345 66.1948 128.931 66.7271C129.522 67.2593 129.837 67.9502 129.876 68.7998H128.594C128.555 68.2871 128.36 67.8672 128.008 67.54C127.662 67.208 127.232 67.042 126.719 67.042C126.031 67.042 125.496 67.291 125.115 67.7891C124.739 68.2822 124.551 68.9976 124.551 69.9351V70.1914C124.551 71.1045 124.739 71.8076 125.115 72.3008C125.491 72.7939 126.028 73.0405 126.727 73.0405ZM136.292 74C136.214 73.8438 136.15 73.5654 136.102 73.165C135.472 73.8193 134.72 74.1465 133.846 74.1465C133.064 74.1465 132.422 73.9268 131.919 73.4873C131.421 73.043 131.172 72.4814 131.172 71.8027C131.172 70.9775 131.485 70.3379 132.11 69.8838C132.74 69.4248 133.624 69.1953 134.761 69.1953H136.08V68.5728C136.08 68.0991 135.938 67.7231 135.655 67.4448C135.372 67.1616 134.954 67.02 134.402 67.02C133.919 67.02 133.514 67.1421 133.187 67.3862C132.859 67.6304 132.696 67.9258 132.696 68.2725H131.333C131.333 67.877 131.473 67.4961 131.751 67.1299C132.034 66.7588 132.415 66.4658 132.894 66.251C133.377 66.0361 133.907 65.9287 134.483 65.9287C135.396 65.9287 136.111 66.1582 136.629 66.6172C137.146 67.0713 137.415 67.6987 137.435 68.4995V72.147C137.435 72.8745 137.527 73.4531 137.713 73.8828V74H136.292ZM134.043 72.9673C134.468 72.9673 134.871 72.8574 135.252 72.6377C135.633 72.418 135.909 72.1323 136.08 71.7808V70.1548H135.018C133.357 70.1548 132.527 70.6406 132.527 71.6123C132.527 72.0371 132.669 72.3691 132.952 72.6084C133.235 72.8477 133.599 72.9673 134.043 72.9673ZM140.833 66.0752L140.87 66.9541C141.451 66.2705 142.234 65.9287 143.221 65.9287C144.329 65.9287 145.083 66.3535 145.484 67.2031C145.748 66.8223 146.089 66.5146 146.509 66.2803C146.934 66.0459 147.435 65.9287 148.011 65.9287C149.749 65.9287 150.633 66.8491 150.662 68.6899V74H149.307V68.7705C149.307 68.2041 149.178 67.7817 148.919 67.5034C148.66 67.2202 148.226 67.0786 147.615 67.0786C147.112 67.0786 146.695 67.23 146.363 67.5327C146.031 67.8306 145.838 68.2334 145.784 68.7412V74H144.422V68.8071C144.422 67.6548 143.858 67.0786 142.73 67.0786C141.841 67.0786 141.233 67.457 140.906 68.2139V74H139.551V66.0752H140.833ZM159.422 70.1255C159.422 71.3364 159.144 72.3105 158.587 73.0479C158.03 73.7803 157.283 74.1465 156.346 74.1465C155.345 74.1465 154.571 73.7925 154.024 73.0845L153.958 74H152.713V62.75H154.068V66.9468C154.615 66.2681 155.369 65.9287 156.331 65.9287C157.293 65.9287 158.047 66.2925 158.594 67.02C159.146 67.7476 159.422 68.7437 159.422 70.0083V70.1255ZM158.067 69.9717C158.067 69.0488 157.889 68.3359 157.532 67.833C157.176 67.3301 156.663 67.0786 155.994 67.0786C155.101 67.0786 154.458 67.4937 154.068 68.3237V71.7515C154.483 72.5815 155.13 72.9966 156.009 72.9966C156.658 72.9966 157.164 72.7451 157.525 72.2422C157.886 71.7393 158.067 70.9824 158.067 69.9717ZM162.608 74H161.253V66.0752H162.608V74ZM161.143 63.9731C161.143 63.7534 161.209 63.5679 161.341 63.4165C161.478 63.2651 161.678 63.1895 161.941 63.1895C162.205 63.1895 162.405 63.2651 162.542 63.4165C162.679 63.5679 162.747 63.7534 162.747 63.9731C162.747 64.1929 162.679 64.376 162.542 64.5225C162.405 64.6689 162.205 64.7422 161.941 64.7422C161.678 64.7422 161.478 64.6689 161.341 64.5225C161.209 64.376 161.143 64.1929 161.143 63.9731ZM169.676 74C169.598 73.8438 169.534 73.5654 169.485 73.165C168.855 73.8193 168.104 74.1465 167.229 74.1465C166.448 74.1465 165.806 73.9268 165.303 73.4873C164.805 73.043 164.556 72.4814 164.556 71.8027C164.556 70.9775 164.869 70.3379 165.494 69.8838C166.124 69.4248 167.007 69.1953 168.145 69.1953H169.463V68.5728C169.463 68.0991 169.322 67.7231 169.039 67.4448C168.755 67.1616 168.338 67.02 167.786 67.02C167.303 67.02 166.897 67.1421 166.57 67.3862C166.243 67.6304 166.08 67.9258 166.08 68.2725H164.717C164.717 67.877 164.856 67.4961 165.135 67.1299C165.418 66.7588 165.799 66.4658 166.277 66.251C166.761 66.0361 167.291 65.9287 167.867 65.9287C168.78 65.9287 169.495 66.1582 170.013 66.6172C170.53 67.0713 170.799 67.6987 170.818 68.4995V72.147C170.818 72.8745 170.911 73.4531 171.097 73.8828V74H169.676ZM167.427 72.9673C167.852 72.9673 168.255 72.8574 168.636 72.6377C169.017 72.418 169.292 72.1323 169.463 71.7808V70.1548H168.401C166.741 70.1548 165.911 70.6406 165.911 71.6123C165.911 72.0371 166.053 72.3691 166.336 72.6084C166.619 72.8477 166.983 72.9673 167.427 72.9673ZM174.224 66.0752L174.268 67.0713C174.874 66.3096 175.665 65.9287 176.641 65.9287C178.316 65.9287 179.161 66.8735 179.175 68.7632V74H177.82V68.7559C177.815 68.1846 177.684 67.7622 177.425 67.4888C177.171 67.2153 176.773 67.0786 176.231 67.0786C175.792 67.0786 175.406 67.1958 175.074 67.4302C174.742 67.6646 174.483 67.9722 174.297 68.353V74H172.942V66.0752H174.224ZM180.889 69.9717C180.889 68.7559 181.177 67.7793 181.753 67.042C182.33 66.2998 183.084 65.9287 184.017 65.9287C184.944 65.9287 185.679 66.2461 186.221 66.8809V62.75H187.576V74H186.331L186.265 73.1504C185.723 73.8145 184.969 74.1465 184.002 74.1465C183.084 74.1465 182.334 73.7705 181.753 73.0186C181.177 72.2666 180.889 71.2852 180.889 70.0742V69.9717ZM182.244 70.1255C182.244 71.0239 182.43 71.7271 182.801 72.2349C183.172 72.7427 183.685 72.9966 184.339 72.9966C185.198 72.9966 185.826 72.6108 186.221 71.8394V68.1992C185.816 67.4521 185.193 67.0786 184.354 67.0786C183.689 67.0786 183.172 67.335 182.801 67.8477C182.43 68.3604 182.244 69.1196 182.244 70.1255ZM189.327 69.9644C189.327 69.188 189.478 68.4897 189.781 67.8696C190.088 67.2495 190.513 66.771 191.055 66.4341C191.602 66.0972 192.225 65.9287 192.923 65.9287C194.002 65.9287 194.874 66.3022 195.538 67.0493C196.207 67.7964 196.541 68.79 196.541 70.0303V70.1255C196.541 70.897 196.392 71.5903 196.094 72.2056C195.801 72.8159 195.379 73.292 194.827 73.6338C194.28 73.9756 193.65 74.1465 192.938 74.1465C191.863 74.1465 190.992 73.7729 190.323 73.0259C189.659 72.2788 189.327 71.29 189.327 70.0596V69.9644ZM190.689 70.1255C190.689 71.0044 190.892 71.71 191.297 72.2422C191.707 72.7744 192.254 73.0405 192.938 73.0405C193.626 73.0405 194.173 72.772 194.578 72.2349C194.983 71.6929 195.186 70.936 195.186 69.9644C195.186 69.0952 194.979 68.3921 194.563 67.855C194.153 67.313 193.606 67.042 192.923 67.042C192.254 67.042 191.714 67.3081 191.304 67.8403C190.894 68.3726 190.689 69.1343 190.689 70.1255ZM198.196 76.124L197.427 75.5967C197.886 74.957 198.125 74.2979 198.145 73.6191V72.396H199.471V73.458C199.471 73.9512 199.349 74.4443 199.104 74.9375C198.865 75.4307 198.562 75.8262 198.196 76.124ZM206.187 66.0752L206.231 67.0713C206.836 66.3096 207.627 65.9287 208.604 65.9287C210.279 65.9287 211.124 66.8735 211.138 68.7632V74H209.783V68.7559C209.778 68.1846 209.646 67.7622 209.388 67.4888C209.134 67.2153 208.736 67.0786 208.194 67.0786C207.754 67.0786 207.369 67.1958 207.037 67.4302C206.705 67.6646 206.446 67.9722 206.26 68.353V74H204.905V66.0752H206.187ZM216.47 74.1465C215.396 74.1465 214.522 73.7949 213.848 73.0918C213.174 72.3838 212.837 71.439 212.837 70.2573V70.0083C212.837 69.2222 212.986 68.5215 213.284 67.9062C213.587 67.2861 214.007 66.8027 214.544 66.4561C215.086 66.1045 215.672 65.9287 216.302 65.9287C217.332 65.9287 218.133 66.2681 218.704 66.9468C219.275 67.6255 219.561 68.5972 219.561 69.8618V70.4258H214.192C214.212 71.207 214.439 71.8394 214.874 72.3228C215.313 72.8013 215.87 73.0405 216.543 73.0405C217.022 73.0405 217.427 72.9429 217.759 72.7476C218.091 72.5522 218.382 72.2935 218.631 71.9712L219.458 72.6157C218.794 73.6362 217.798 74.1465 216.47 74.1465ZM216.302 67.042C215.755 67.042 215.296 67.2422 214.925 67.6426C214.554 68.0381 214.324 68.5947 214.236 69.3125H218.206V69.21C218.167 68.5215 217.981 67.9893 217.649 67.6133C217.317 67.2324 216.868 67.042 216.302 67.042ZM224.314 73.0405C224.798 73.0405 225.22 72.894 225.582 72.6011C225.943 72.3081 226.143 71.9419 226.182 71.5024H227.464C227.439 71.9565 227.283 72.3887 226.995 72.7988C226.707 73.209 226.321 73.5361 225.838 73.7803C225.359 74.0244 224.852 74.1465 224.314 74.1465C223.235 74.1465 222.376 73.7876 221.736 73.0698C221.102 72.3472 220.784 71.3608 220.784 70.1108V69.8838C220.784 69.1123 220.926 68.4263 221.209 67.8257C221.492 67.2251 221.897 66.7588 222.425 66.4268C222.957 66.0947 223.584 65.9287 224.307 65.9287C225.196 65.9287 225.933 66.1948 226.519 66.7271C227.11 67.2593 227.425 67.9502 227.464 68.7998H226.182C226.143 68.2871 225.948 67.8672 225.596 67.54C225.25 67.208 224.82 67.042 224.307 67.042C223.619 67.042 223.084 67.291 222.703 67.7891C222.327 68.2822 222.139 68.9976 222.139 69.9351V70.1914C222.139 71.1045 222.327 71.8076 222.703 72.3008C223.079 72.7939 223.616 73.0405 224.314 73.0405ZM232.276 74.1465C231.202 74.1465 230.328 73.7949 229.654 73.0918C228.98 72.3838 228.643 71.439 228.643 70.2573V70.0083C228.643 69.2222 228.792 68.5215 229.09 67.9062C229.393 67.2861 229.812 66.8027 230.35 66.4561C230.892 66.1045 231.478 65.9287 232.107 65.9287C233.138 65.9287 233.938 66.2681 234.51 66.9468C235.081 67.6255 235.367 68.5972 235.367 69.8618V70.4258H229.998C230.018 71.207 230.245 71.8394 230.679 72.3228C231.119 72.8013 231.675 73.0405 232.349 73.0405C232.828 73.0405 233.233 72.9429 233.565 72.7476C233.897 72.5522 234.188 72.2935 234.437 71.9712L235.264 72.6157C234.6 73.6362 233.604 74.1465 232.276 74.1465ZM232.107 67.042C231.561 67.042 231.102 67.2422 230.73 67.6426C230.359 68.0381 230.13 68.5947 230.042 69.3125H234.012V69.21C233.973 68.5215 233.787 67.9893 233.455 67.6133C233.123 67.2324 232.674 67.042 232.107 67.042ZM241.556 71.8979C241.556 71.5317 241.417 71.2485 241.138 71.0483C240.865 70.8433 240.384 70.6675 239.695 70.521C239.012 70.3745 238.467 70.1987 238.062 69.9937C237.662 69.7886 237.364 69.5444 237.168 69.2612C236.978 68.978 236.883 68.6411 236.883 68.2505C236.883 67.6011 237.156 67.0518 237.703 66.6025C238.255 66.1533 238.958 65.9287 239.812 65.9287C240.711 65.9287 241.438 66.1606 241.995 66.6245C242.557 67.0884 242.837 67.6816 242.837 68.4043H241.475C241.475 68.0332 241.316 67.7134 240.999 67.4448C240.687 67.1763 240.291 67.042 239.812 67.042C239.319 67.042 238.934 67.1494 238.655 67.3643C238.377 67.5791 238.238 67.8599 238.238 68.2065C238.238 68.5337 238.367 68.7803 238.626 68.9463C238.885 69.1123 239.351 69.271 240.025 69.4224C240.704 69.5737 241.253 69.7544 241.673 69.9644C242.093 70.1743 242.403 70.4282 242.603 70.7261C242.808 71.019 242.911 71.3779 242.911 71.8027C242.911 72.5107 242.627 73.0796 242.061 73.5093C241.495 73.9341 240.76 74.1465 239.856 74.1465C239.222 74.1465 238.66 74.0342 238.172 73.8096C237.684 73.585 237.3 73.2725 237.022 72.8721C236.749 72.4668 236.612 72.0298 236.612 71.561H237.967C237.991 72.0151 238.172 72.3765 238.509 72.645C238.851 72.9087 239.3 73.0405 239.856 73.0405C240.369 73.0405 240.779 72.938 241.087 72.7329C241.399 72.5229 241.556 72.2446 241.556 71.8979ZM246.148 74H244.793V66.0752H246.148V74ZM244.683 63.9731C244.683 63.7534 244.749 63.5679 244.881 63.4165C245.018 63.2651 245.218 63.1895 245.481 63.1895C245.745 63.1895 245.945 63.2651 246.082 63.4165C246.219 63.5679 246.287 63.7534 246.287 63.9731C246.287 64.1929 246.219 64.376 246.082 64.5225C245.945 64.6689 245.745 64.7422 245.481 64.7422C245.218 64.7422 245.018 64.6689 244.881 64.5225C244.749 64.376 244.683 64.1929 244.683 63.9731ZM250.162 64.1562V66.0752H251.641V67.1226H250.162V72.0371C250.162 72.3545 250.228 72.5938 250.359 72.7549C250.491 72.9111 250.716 72.9893 251.033 72.9893C251.189 72.9893 251.404 72.96 251.678 72.9014V74C251.321 74.0977 250.975 74.1465 250.638 74.1465C250.032 74.1465 249.576 73.9634 249.268 73.5972C248.96 73.231 248.807 72.7109 248.807 72.0371V67.1226H247.364V66.0752H248.807V64.1562H250.162ZM258.123 74C258.045 73.8438 257.981 73.5654 257.933 73.165C257.303 73.8193 256.551 74.1465 255.677 74.1465C254.896 74.1465 254.253 73.9268 253.75 73.4873C253.252 73.043 253.003 72.4814 253.003 71.8027C253.003 70.9775 253.316 70.3379 253.941 69.8838C254.571 69.4248 255.455 69.1953 256.592 69.1953H257.911V68.5728C257.911 68.0991 257.769 67.7231 257.486 67.4448C257.203 67.1616 256.785 67.02 256.233 67.02C255.75 67.02 255.345 67.1421 255.018 67.3862C254.69 67.6304 254.527 67.9258 254.527 68.2725H253.165C253.165 67.877 253.304 67.4961 253.582 67.1299C253.865 66.7588 254.246 66.4658 254.725 66.251C255.208 66.0361 255.738 65.9287 256.314 65.9287C257.227 65.9287 257.942 66.1582 258.46 66.6172C258.978 67.0713 259.246 67.6987 259.266 68.4995V72.147C259.266 72.8745 259.358 73.4531 259.544 73.8828V74H258.123ZM255.875 72.9673C256.299 72.9673 256.702 72.8574 257.083 72.6377C257.464 72.418 257.74 72.1323 257.911 71.7808V70.1548H256.849C255.188 70.1548 254.358 70.6406 254.358 71.6123C254.358 72.0371 254.5 72.3691 254.783 72.6084C255.066 72.8477 255.43 72.9673 255.875 72.9673ZM266.004 71.8979C266.004 71.5317 265.865 71.2485 265.586 71.0483C265.313 70.8433 264.832 70.6675 264.144 70.521C263.46 70.3745 262.916 70.1987 262.51 69.9937C262.11 69.7886 261.812 69.5444 261.617 69.2612C261.426 68.978 261.331 68.6411 261.331 68.2505C261.331 67.6011 261.604 67.0518 262.151 66.6025C262.703 66.1533 263.406 65.9287 264.261 65.9287C265.159 65.9287 265.887 66.1606 266.443 66.6245C267.005 67.0884 267.286 67.6816 267.286 68.4043H265.923C265.923 68.0332 265.765 67.7134 265.447 67.4448C265.135 67.1763 264.739 67.042 264.261 67.042C263.768 67.042 263.382 67.1494 263.104 67.3643C262.825 67.5791 262.686 67.8599 262.686 68.2065C262.686 68.5337 262.815 68.7803 263.074 68.9463C263.333 69.1123 263.799 69.271 264.473 69.4224C265.152 69.5737 265.701 69.7544 266.121 69.9644C266.541 70.1743 266.851 70.4282 267.051 70.7261C267.256 71.019 267.359 71.3779 267.359 71.8027C267.359 72.5107 267.076 73.0796 266.509 73.5093C265.943 73.9341 265.208 74.1465 264.305 74.1465C263.67 74.1465 263.108 74.0342 262.62 73.8096C262.132 73.585 261.749 73.2725 261.47 72.8721C261.197 72.4668 261.06 72.0298 261.06 71.561H262.415C262.439 72.0151 262.62 72.3765 262.957 72.645C263.299 72.9087 263.748 73.0405 264.305 73.0405C264.817 73.0405 265.228 72.938 265.535 72.7329C265.848 72.5229 266.004 72.2446 266.004 71.8979ZM277.737 74C277.659 73.8438 277.596 73.5654 277.547 73.165C276.917 73.8193 276.165 74.1465 275.291 74.1465C274.51 74.1465 273.868 73.9268 273.365 73.4873C272.867 73.043 272.618 72.4814 272.618 71.8027C272.618 70.9775 272.93 70.3379 273.555 69.8838C274.185 69.4248 275.069 69.1953 276.207 69.1953H277.525V68.5728C277.525 68.0991 277.383 67.7231 277.1 67.4448C276.817 67.1616 276.399 67.02 275.848 67.02C275.364 67.02 274.959 67.1421 274.632 67.3862C274.305 67.6304 274.141 67.9258 274.141 68.2725H272.779C272.779 67.877 272.918 67.4961 273.196 67.1299C273.479 66.7588 273.86 66.4658 274.339 66.251C274.822 66.0361 275.352 65.9287 275.928 65.9287C276.841 65.9287 277.557 66.1582 278.074 66.6172C278.592 67.0713 278.86 67.6987 278.88 68.4995V72.147C278.88 72.8745 278.973 73.4531 279.158 73.8828V74H277.737ZM275.489 72.9673C275.914 72.9673 276.316 72.8574 276.697 72.6377C277.078 72.418 277.354 72.1323 277.525 71.7808V70.1548H276.463C274.803 70.1548 273.973 70.6406 273.973 71.6123C273.973 72.0371 274.114 72.3691 274.397 72.6084C274.681 72.8477 275.044 72.9673 275.489 72.9673ZM282.476 74H281.121V62.75H282.476V74ZM286.124 74H284.769V66.0752H286.124V74ZM284.659 63.9731C284.659 63.7534 284.725 63.5679 284.856 63.4165C284.993 63.2651 285.193 63.1895 285.457 63.1895C285.721 63.1895 285.921 63.2651 286.058 63.4165C286.194 63.5679 286.263 63.7534 286.263 63.9731C286.263 64.1929 286.194 64.376 286.058 64.5225C285.921 64.6689 285.721 64.7422 285.457 64.7422C285.193 64.7422 284.993 64.6689 284.856 64.5225C284.725 64.376 284.659 64.1929 284.659 63.9731ZM293.191 74C293.113 73.8438 293.05 73.5654 293.001 73.165C292.371 73.8193 291.619 74.1465 290.745 74.1465C289.964 74.1465 289.322 73.9268 288.819 73.4873C288.321 73.043 288.072 72.4814 288.072 71.8027C288.072 70.9775 288.384 70.3379 289.009 69.8838C289.639 69.4248 290.523 69.1953 291.661 69.1953H292.979V68.5728C292.979 68.0991 292.837 67.7231 292.554 67.4448C292.271 67.1616 291.854 67.02 291.302 67.02C290.818 67.02 290.413 67.1421 290.086 67.3862C289.759 67.6304 289.595 67.9258 289.595 68.2725H288.233C288.233 67.877 288.372 67.4961 288.65 67.1299C288.934 66.7588 289.314 66.4658 289.793 66.251C290.276 66.0361 290.806 65.9287 291.382 65.9287C292.295 65.9287 293.011 66.1582 293.528 66.6172C294.046 67.0713 294.314 67.6987 294.334 68.4995V72.147C294.334 72.8745 294.427 73.4531 294.612 73.8828V74H293.191ZM290.943 72.9673C291.368 72.9673 291.771 72.8574 292.151 72.6377C292.532 72.418 292.808 72.1323 292.979 71.7808V70.1548H291.917C290.257 70.1548 289.427 70.6406 289.427 71.6123C289.427 72.0371 289.568 72.3691 289.852 72.6084C290.135 72.8477 290.499 72.9673 290.943 72.9673ZM296.128 69.9717C296.128 68.7559 296.417 67.7793 296.993 67.042C297.569 66.2998 298.323 65.9287 299.256 65.9287C300.184 65.9287 300.918 66.2461 301.46 66.8809V62.75H302.815V74H301.57L301.504 73.1504C300.962 73.8145 300.208 74.1465 299.241 74.1465C298.323 74.1465 297.574 73.7705 296.993 73.0186C296.417 72.2666 296.128 71.2852 296.128 70.0742V69.9717ZM297.483 70.1255C297.483 71.0239 297.669 71.7271 298.04 72.2349C298.411 72.7427 298.924 72.9966 299.578 72.9966C300.438 72.9966 301.065 72.6108 301.46 71.8394V68.1992C301.055 67.4521 300.433 67.0786 299.593 67.0786C298.929 67.0786 298.411 67.335 298.04 67.8477C297.669 68.3604 297.483 69.1196 297.483 70.1255ZM304.566 69.9644C304.566 69.188 304.717 68.4897 305.02 67.8696C305.328 67.2495 305.752 66.771 306.294 66.4341C306.841 66.0972 307.464 65.9287 308.162 65.9287C309.241 65.9287 310.113 66.3022 310.777 67.0493C311.446 67.7964 311.78 68.79 311.78 70.0303V70.1255C311.78 70.897 311.631 71.5903 311.333 72.2056C311.041 72.8159 310.618 73.292 310.066 73.6338C309.52 73.9756 308.89 74.1465 308.177 74.1465C307.103 74.1465 306.231 73.7729 305.562 73.0259C304.898 72.2788 304.566 71.29 304.566 70.0596V69.9644ZM305.928 70.1255C305.928 71.0044 306.131 71.71 306.536 72.2422C306.946 72.7744 307.493 73.0405 308.177 73.0405C308.865 73.0405 309.412 72.772 309.817 72.2349C310.223 71.6929 310.425 70.936 310.425 69.9644C310.425 69.0952 310.218 68.3921 309.803 67.855C309.393 67.313 308.846 67.042 308.162 67.042C307.493 67.042 306.954 67.3081 306.543 67.8403C306.133 68.3726 305.928 69.1343 305.928 70.1255ZM318.094 71.8979C318.094 71.5317 317.955 71.2485 317.676 71.0483C317.403 70.8433 316.922 70.6675 316.233 70.521C315.55 70.3745 315.005 70.1987 314.6 69.9937C314.2 69.7886 313.902 69.5444 313.707 69.2612C313.516 68.978 313.421 68.6411 313.421 68.2505C313.421 67.6011 313.694 67.0518 314.241 66.6025C314.793 66.1533 315.496 65.9287 316.351 65.9287C317.249 65.9287 317.977 66.1606 318.533 66.6245C319.095 67.0884 319.375 67.6816 319.375 68.4043H318.013C318.013 68.0332 317.854 67.7134 317.537 67.4448C317.225 67.1763 316.829 67.042 316.351 67.042C315.857 67.042 315.472 67.1494 315.193 67.3643C314.915 67.5791 314.776 67.8599 314.776 68.2065C314.776 68.5337 314.905 68.7803 315.164 68.9463C315.423 69.1123 315.889 69.271 316.563 69.4224C317.242 69.5737 317.791 69.7544 318.211 69.9644C318.631 70.1743 318.941 70.4282 319.141 70.7261C319.346 71.019 319.449 71.3779 319.449 71.8027C319.449 72.5107 319.166 73.0796 318.599 73.5093C318.033 73.9341 317.298 74.1465 316.395 74.1465C315.76 74.1465 315.198 74.0342 314.71 73.8096C314.222 73.585 313.838 73.2725 313.56 72.8721C313.287 72.4668 313.15 72.0298 313.15 71.561H314.505C314.529 72.0151 314.71 72.3765 315.047 72.645C315.389 72.9087 315.838 73.0405 316.395 73.0405C316.907 73.0405 317.317 72.938 317.625 72.7329C317.938 72.5229 318.094 72.2446 318.094 71.8979ZM325.601 74V67.1226H324.349V66.0752H325.601V65.2622C325.601 64.4126 325.828 63.7559 326.282 63.292C326.736 62.8281 327.378 62.5962 328.208 62.5962C328.521 62.5962 328.831 62.6377 329.139 62.7207L329.065 63.8193C328.836 63.7754 328.592 63.7534 328.333 63.7534C327.894 63.7534 327.554 63.8828 327.315 64.1416C327.076 64.3955 326.956 64.7617 326.956 65.2402V66.0752H328.648V67.1226H326.956V74H325.601ZM335.042 73.2163C334.515 73.8364 333.741 74.1465 332.72 74.1465C331.875 74.1465 331.231 73.9023 330.787 73.4141C330.347 72.9209 330.125 72.1934 330.12 71.2314V66.0752H331.475V71.1948C331.475 72.396 331.963 72.9966 332.94 72.9966C333.975 72.9966 334.664 72.6108 335.005 71.8394V66.0752H336.36V74H335.071L335.042 73.2163ZM341.714 74.1465C340.64 74.1465 339.766 73.7949 339.092 73.0918C338.418 72.3838 338.082 71.439 338.082 70.2573V70.0083C338.082 69.2222 338.23 68.5215 338.528 67.9062C338.831 67.2861 339.251 66.8027 339.788 66.4561C340.33 66.1045 340.916 65.9287 341.546 65.9287C342.576 65.9287 343.377 66.2681 343.948 66.9468C344.52 67.6255 344.805 68.5972 344.805 69.8618V70.4258H339.437C339.456 71.207 339.683 71.8394 340.118 72.3228C340.557 72.8013 341.114 73.0405 341.788 73.0405C342.266 73.0405 342.671 72.9429 343.003 72.7476C343.335 72.5522 343.626 72.2935 343.875 71.9712L344.703 72.6157C344.039 73.6362 343.042 74.1465 341.714 74.1465ZM341.546 67.042C340.999 67.042 340.54 67.2422 340.169 67.6426C339.798 68.0381 339.568 68.5947 339.48 69.3125H343.45V69.21C343.411 68.5215 343.226 67.9893 342.894 67.6133C342.562 67.2324 342.112 67.042 341.546 67.042ZM350.21 67.291C350.005 67.2568 349.783 67.2397 349.544 67.2397C348.655 67.2397 348.052 67.6182 347.735 68.375V74H346.38V66.0752H347.698L347.72 66.9907C348.165 66.2827 348.794 65.9287 349.61 65.9287C349.874 65.9287 350.074 65.9629 350.21 66.0312V67.291ZM353.667 64.1562V66.0752H355.147V67.1226H353.667V72.0371C353.667 72.3545 353.733 72.5938 353.865 72.7549C353.997 72.9111 354.222 72.9893 354.539 72.9893C354.695 72.9893 354.91 72.96 355.184 72.9014V74C354.827 74.0977 354.48 74.1465 354.144 74.1465C353.538 74.1465 353.082 73.9634 352.774 73.5972C352.466 73.231 352.312 72.7109 352.312 72.0371V67.1226H350.87V66.0752H352.312V64.1562H353.667ZM360.025 74.1465C358.951 74.1465 358.077 73.7949 357.403 73.0918C356.729 72.3838 356.392 71.439 356.392 70.2573V70.0083C356.392 69.2222 356.541 68.5215 356.839 67.9062C357.142 67.2861 357.562 66.8027 358.099 66.4561C358.641 66.1045 359.227 65.9287 359.856 65.9287C360.887 65.9287 361.688 66.2681 362.259 66.9468C362.83 67.6255 363.116 68.5972 363.116 69.8618V70.4258H357.747C357.767 71.207 357.994 71.8394 358.428 72.3228C358.868 72.8013 359.424 73.0405 360.098 73.0405C360.577 73.0405 360.982 72.9429 361.314 72.7476C361.646 72.5522 361.937 72.2935 362.186 71.9712L363.013 72.6157C362.349 73.6362 361.353 74.1465 360.025 74.1465ZM359.856 67.042C359.31 67.042 358.851 67.2422 358.479 67.6426C358.108 68.0381 357.879 68.5947 357.791 69.3125H361.761V69.21C361.722 68.5215 361.536 67.9893 361.204 67.6133C360.872 67.2324 360.423 67.042 359.856 67.042ZM369.305 71.8979C369.305 71.5317 369.166 71.2485 368.887 71.0483C368.614 70.8433 368.133 70.6675 367.444 70.521C366.761 70.3745 366.216 70.1987 365.811 69.9937C365.411 69.7886 365.113 69.5444 364.917 69.2612C364.727 68.978 364.632 68.6411 364.632 68.2505C364.632 67.6011 364.905 67.0518 365.452 66.6025C366.004 66.1533 366.707 65.9287 367.562 65.9287C368.46 65.9287 369.188 66.1606 369.744 66.6245C370.306 67.0884 370.586 67.6816 370.586 68.4043H369.224C369.224 68.0332 369.065 67.7134 368.748 67.4448C368.436 67.1763 368.04 67.042 367.562 67.042C367.068 67.042 366.683 67.1494 366.404 67.3643C366.126 67.5791 365.987 67.8599 365.987 68.2065C365.987 68.5337 366.116 68.7803 366.375 68.9463C366.634 69.1123 367.1 69.271 367.774 69.4224C368.453 69.5737 369.002 69.7544 369.422 69.9644C369.842 70.1743 370.152 70.4282 370.352 70.7261C370.557 71.019 370.66 71.3779 370.66 71.8027C370.66 72.5107 370.376 73.0796 369.81 73.5093C369.244 73.9341 368.509 74.1465 367.605 74.1465C366.971 74.1465 366.409 74.0342 365.921 73.8096C365.433 73.585 365.049 73.2725 364.771 72.8721C364.498 72.4668 364.361 72.0298 364.361 71.561H365.716C365.74 72.0151 365.921 72.3765 366.258 72.645C366.6 72.9087 367.049 73.0405 367.605 73.0405C368.118 73.0405 368.528 72.938 368.836 72.7329C369.148 72.5229 369.305 72.2446 369.305 71.8979ZM372.381 76.124L371.612 75.5967C372.071 74.957 372.31 74.2979 372.33 73.6191V72.396H373.655V73.458C373.655 73.9512 373.533 74.4443 373.289 74.9375C373.05 75.4307 372.747 75.8262 372.381 76.124ZM383.704 71.8979C383.704 71.5317 383.565 71.2485 383.287 71.0483C383.013 70.8433 382.532 70.6675 381.844 70.521C381.16 70.3745 380.616 70.1987 380.21 69.9937C379.81 69.7886 379.512 69.5444 379.317 69.2612C379.126 68.978 379.031 68.6411 379.031 68.2505C379.031 67.6011 379.305 67.0518 379.852 66.6025C380.403 66.1533 381.106 65.9287 381.961 65.9287C382.859 65.9287 383.587 66.1606 384.144 66.6245C384.705 67.0884 384.986 67.6816 384.986 68.4043H383.624C383.624 68.0332 383.465 67.7134 383.147 67.4448C382.835 67.1763 382.439 67.042 381.961 67.042C381.468 67.042 381.082 67.1494 380.804 67.3643C380.525 67.5791 380.386 67.8599 380.386 68.2065C380.386 68.5337 380.516 68.7803 380.774 68.9463C381.033 69.1123 381.5 69.271 382.173 69.4224C382.852 69.5737 383.401 69.7544 383.821 69.9644C384.241 70.1743 384.551 70.4282 384.751 70.7261C384.957 71.019 385.059 71.3779 385.059 71.8027C385.059 72.5107 384.776 73.0796 384.209 73.5093C383.643 73.9341 382.908 74.1465 382.005 74.1465C381.37 74.1465 380.809 74.0342 380.32 73.8096C379.832 73.585 379.449 73.2725 379.17 72.8721C378.897 72.4668 378.76 72.0298 378.76 71.561H380.115C380.14 72.0151 380.32 72.3765 380.657 72.645C380.999 72.9087 381.448 73.0405 382.005 73.0405C382.518 73.0405 382.928 72.938 383.235 72.7329C383.548 72.5229 383.704 72.2446 383.704 71.8979ZM386.465 69.9644C386.465 69.188 386.617 68.4897 386.919 67.8696C387.227 67.2495 387.652 66.771 388.194 66.4341C388.741 66.0972 389.363 65.9287 390.062 65.9287C391.141 65.9287 392.012 66.3022 392.676 67.0493C393.345 67.7964 393.68 68.79 393.68 70.0303V70.1255C393.68 70.897 393.531 71.5903 393.233 72.2056C392.94 72.8159 392.518 73.292 391.966 73.6338C391.419 73.9756 390.789 74.1465 390.076 74.1465C389.002 74.1465 388.13 73.7729 387.461 73.0259C386.797 72.2788 386.465 71.29 386.465 70.0596V69.9644ZM387.828 70.1255C387.828 71.0044 388.03 71.71 388.436 72.2422C388.846 72.7744 389.393 73.0405 390.076 73.0405C390.765 73.0405 391.312 72.772 391.717 72.2349C392.122 71.6929 392.325 70.936 392.325 69.9644C392.325 69.0952 392.117 68.3921 391.702 67.855C391.292 67.313 390.745 67.042 390.062 67.042C389.393 67.042 388.853 67.3081 388.443 67.8403C388.033 68.3726 387.828 69.1343 387.828 70.1255ZM396.851 74H395.496V62.75H396.851V74ZM403.919 73.2163C403.392 73.8364 402.618 74.1465 401.597 74.1465C400.752 74.1465 400.108 73.9023 399.664 73.4141C399.224 72.9209 399.002 72.1934 398.997 71.2314V66.0752H400.352V71.1948C400.352 72.396 400.84 72.9966 401.817 72.9966C402.852 72.9966 403.541 72.6108 403.882 71.8394V66.0752H405.237V74H403.948L403.919 73.2163ZM410.481 73.0405C410.965 73.0405 411.387 72.894 411.749 72.6011C412.11 72.3081 412.31 71.9419 412.349 71.5024H413.631C413.606 71.9565 413.45 72.3887 413.162 72.7988C412.874 73.209 412.488 73.5361 412.005 73.7803C411.526 74.0244 411.019 74.1465 410.481 74.1465C409.402 74.1465 408.543 73.7876 407.903 73.0698C407.269 72.3472 406.951 71.3608 406.951 70.1108V69.8838C406.951 69.1123 407.093 68.4263 407.376 67.8257C407.659 67.2251 408.064 66.7588 408.592 66.4268C409.124 66.0947 409.751 65.9287 410.474 65.9287C411.363 65.9287 412.1 66.1948 412.686 66.7271C413.277 67.2593 413.592 67.9502 413.631 68.7998H412.349C412.31 68.2871 412.115 67.8672 411.763 67.54C411.417 67.208 410.987 67.042 410.474 67.042C409.786 67.042 409.251 67.291 408.87 67.7891C408.494 68.2822 408.306 68.9976 408.306 69.9351V70.1914C408.306 71.1045 408.494 71.8076 408.87 72.3008C409.246 72.7939 409.783 73.0405 410.481 73.0405ZM416.626 74H415.271V66.0752H416.626V74ZM415.162 63.9731C415.162 63.7534 415.228 63.5679 415.359 63.4165C415.496 63.2651 415.696 63.1895 415.96 63.1895C416.224 63.1895 416.424 63.2651 416.561 63.4165C416.697 63.5679 416.766 63.7534 416.766 63.9731C416.766 64.1929 416.697 64.376 416.561 64.5225C416.424 64.6689 416.224 64.7422 415.96 64.7422C415.696 64.7422 415.496 64.6689 415.359 64.5225C415.228 64.376 415.162 64.1929 415.162 63.9731ZM418.443 69.9644C418.443 69.188 418.594 68.4897 418.897 67.8696C419.205 67.2495 419.629 66.771 420.171 66.4341C420.718 66.0972 421.341 65.9287 422.039 65.9287C423.118 65.9287 423.99 66.3022 424.654 67.0493C425.323 67.7964 425.657 68.79 425.657 70.0303V70.1255C425.657 70.897 425.508 71.5903 425.21 72.2056C424.917 72.8159 424.495 73.292 423.943 73.6338C423.396 73.9756 422.767 74.1465 422.054 74.1465C420.979 74.1465 420.108 73.7729 419.439 73.0259C418.775 72.2788 418.443 71.29 418.443 70.0596V69.9644ZM419.805 70.1255C419.805 71.0044 420.008 71.71 420.413 72.2422C420.823 72.7744 421.37 73.0405 422.054 73.0405C422.742 73.0405 423.289 72.772 423.694 72.2349C424.1 71.6929 424.302 70.936 424.302 69.9644C424.302 69.0952 424.095 68.3921 423.68 67.855C423.27 67.313 422.723 67.042 422.039 67.042C421.37 67.042 420.831 67.3081 420.42 67.8403C420.01 68.3726 419.805 69.1343 419.805 70.1255ZM428.638 66.0752L428.682 67.0713C429.288 66.3096 430.079 65.9287 431.055 65.9287C432.73 65.9287 433.575 66.8735 433.589 68.7632V74H432.234V68.7559C432.229 68.1846 432.098 67.7622 431.839 67.4888C431.585 67.2153 431.187 67.0786 430.645 67.0786C430.206 67.0786 429.82 67.1958 429.488 67.4302C429.156 67.6646 428.897 67.9722 428.711 68.353V74H427.356V66.0752H428.638ZM438.921 74.1465C437.847 74.1465 436.973 73.7949 436.299 73.0918C435.625 72.3838 435.289 71.439 435.289 70.2573V70.0083C435.289 69.2222 435.438 68.5215 435.735 67.9062C436.038 67.2861 436.458 66.8027 436.995 66.4561C437.537 66.1045 438.123 65.9287 438.753 65.9287C439.783 65.9287 440.584 66.2681 441.155 66.9468C441.727 67.6255 442.012 68.5972 442.012 69.8618V70.4258H436.644C436.663 71.207 436.89 71.8394 437.325 72.3228C437.764 72.8013 438.321 73.0405 438.995 73.0405C439.473 73.0405 439.878 72.9429 440.21 72.7476C440.542 72.5522 440.833 72.2935 441.082 71.9712L441.91 72.6157C441.246 73.6362 440.25 74.1465 438.921 74.1465ZM438.753 67.042C438.206 67.042 437.747 67.2422 437.376 67.6426C437.005 68.0381 436.775 68.5947 436.688 69.3125H440.657V69.21C440.618 68.5215 440.433 67.9893 440.101 67.6133C439.769 67.2324 439.319 67.042 438.753 67.042ZM448.201 71.8979C448.201 71.5317 448.062 71.2485 447.784 71.0483C447.51 70.8433 447.029 70.6675 446.341 70.521C445.657 70.3745 445.113 70.1987 444.708 69.9937C444.307 69.7886 444.009 69.5444 443.814 69.2612C443.624 68.978 443.528 68.6411 443.528 68.2505C443.528 67.6011 443.802 67.0518 444.349 66.6025C444.9 66.1533 445.604 65.9287 446.458 65.9287C447.356 65.9287 448.084 66.1606 448.641 66.6245C449.202 67.0884 449.483 67.6816 449.483 68.4043H448.121C448.121 68.0332 447.962 67.7134 447.645 67.4448C447.332 67.1763 446.937 67.042 446.458 67.042C445.965 67.042 445.579 67.1494 445.301 67.3643C445.022 67.5791 444.883 67.8599 444.883 68.2065C444.883 68.5337 445.013 68.7803 445.271 68.9463C445.53 69.1123 445.997 69.271 446.67 69.4224C447.349 69.5737 447.898 69.7544 448.318 69.9644C448.738 70.1743 449.048 70.4282 449.249 70.7261C449.454 71.019 449.556 71.3779 449.556 71.8027C449.556 72.5107 449.273 73.0796 448.707 73.5093C448.14 73.9341 447.405 74.1465 446.502 74.1465C445.867 74.1465 445.306 74.0342 444.817 73.8096C444.329 73.585 443.946 73.2725 443.667 72.8721C443.394 72.4668 443.257 72.0298 443.257 71.561H444.612C444.637 72.0151 444.817 72.3765 445.154 72.645C445.496 72.9087 445.945 73.0405 446.502 73.0405C447.015 73.0405 447.425 72.938 447.732 72.7329C448.045 72.5229 448.201 72.2446 448.201 71.8979ZM172.283 85.291C172.078 85.2568 171.856 85.2397 171.617 85.2397C170.728 85.2397 170.125 85.6182 169.808 86.375V92H168.453V84.0752H169.771L169.793 84.9907C170.237 84.2827 170.867 83.9287 171.683 83.9287C171.946 83.9287 172.146 83.9629 172.283 84.0312V85.291ZM178.135 92C178.057 91.8438 177.994 91.5654 177.945 91.165C177.315 91.8193 176.563 92.1465 175.689 92.1465C174.908 92.1465 174.266 91.9268 173.763 91.4873C173.265 91.043 173.016 90.4814 173.016 89.8027C173.016 88.9775 173.328 88.3379 173.953 87.8838C174.583 87.4248 175.467 87.1953 176.604 87.1953H177.923V86.5728C177.923 86.0991 177.781 85.7231 177.498 85.4448C177.215 85.1616 176.797 85.02 176.246 85.02C175.762 85.02 175.357 85.1421 175.03 85.3862C174.703 85.6304 174.539 85.9258 174.539 86.2725H173.177C173.177 85.877 173.316 85.4961 173.594 85.1299C173.877 84.7588 174.258 84.4658 174.737 84.251C175.22 84.0361 175.75 83.9287 176.326 83.9287C177.239 83.9287 177.955 84.1582 178.472 84.6172C178.99 85.0713 179.258 85.6987 179.278 86.4995V90.147C179.278 90.8745 179.371 91.4531 179.556 91.8828V92H178.135ZM175.887 90.9673C176.312 90.9673 176.714 90.8574 177.095 90.6377C177.476 90.418 177.752 90.1323 177.923 89.7808V88.1548H176.861C175.201 88.1548 174.371 88.6406 174.371 89.6123C174.371 90.0371 174.512 90.3691 174.795 90.6084C175.079 90.8477 175.442 90.9673 175.887 90.9673ZM177.139 80.75H178.78L176.817 82.9033H175.726L177.139 80.75ZM188.096 88.1255C188.096 89.3315 187.82 90.3032 187.269 91.0405C186.717 91.7778 185.97 92.1465 185.027 92.1465C184.065 92.1465 183.309 91.8413 182.757 91.231V95.0469H181.402V84.0752H182.64L182.706 84.9541C183.257 84.2705 184.024 83.9287 185.005 83.9287C185.958 83.9287 186.709 84.2876 187.261 85.0054C187.818 85.7231 188.096 86.7217 188.096 88.001V88.1255ZM186.741 87.9717C186.741 87.0781 186.551 86.3726 186.17 85.855C185.789 85.3374 185.267 85.0786 184.603 85.0786C183.782 85.0786 183.167 85.4424 182.757 86.1699V89.9565C183.162 90.6792 183.782 91.0405 184.617 91.0405C185.267 91.0405 185.782 90.7842 186.163 90.2715C186.548 89.7539 186.741 88.9873 186.741 87.9717ZM191.297 92H189.942V84.0752H191.297V92ZM189.832 81.9731C189.832 81.7534 189.898 81.5679 190.03 81.4165C190.167 81.2651 190.367 81.1895 190.63 81.1895C190.894 81.1895 191.094 81.2651 191.231 81.4165C191.368 81.5679 191.436 81.7534 191.436 81.9731C191.436 82.1929 191.368 82.376 191.231 82.5225C191.094 82.6689 190.894 82.7422 190.63 82.7422C190.367 82.7422 190.167 82.6689 190.03 82.5225C189.898 82.376 189.832 82.1929 189.832 81.9731ZM193.143 87.9717C193.143 86.7559 193.431 85.7793 194.007 85.042C194.583 84.2998 195.337 83.9287 196.27 83.9287C197.198 83.9287 197.933 84.2461 198.475 84.8809V80.75H199.83V92H198.584L198.519 91.1504C197.977 91.8145 197.222 92.1465 196.255 92.1465C195.337 92.1465 194.588 91.7705 194.007 91.0186C193.431 90.2666 193.143 89.2852 193.143 88.0742V87.9717ZM194.498 88.1255C194.498 89.0239 194.683 89.7271 195.054 90.2349C195.425 90.7427 195.938 90.9966 196.592 90.9966C197.452 90.9966 198.079 90.6108 198.475 89.8394V86.1992C198.069 85.4521 197.447 85.0786 196.607 85.0786C195.943 85.0786 195.425 85.335 195.054 85.8477C194.683 86.3604 194.498 87.1196 194.498 88.1255ZM206.832 92C206.753 91.8438 206.69 91.5654 206.641 91.165C206.011 91.8193 205.259 92.1465 204.385 92.1465C203.604 92.1465 202.962 91.9268 202.459 91.4873C201.961 91.043 201.712 90.4814 201.712 89.8027C201.712 88.9775 202.024 88.3379 202.649 87.8838C203.279 87.4248 204.163 87.1953 205.301 87.1953H206.619V86.5728C206.619 86.0991 206.478 85.7231 206.194 85.4448C205.911 85.1616 205.494 85.02 204.942 85.02C204.458 85.02 204.053 85.1421 203.726 85.3862C203.399 85.6304 203.235 85.9258 203.235 86.2725H201.873C201.873 85.877 202.012 85.4961 202.291 85.1299C202.574 84.7588 202.955 84.4658 203.433 84.251C203.917 84.0361 204.446 83.9287 205.022 83.9287C205.936 83.9287 206.651 84.1582 207.168 84.6172C207.686 85.0713 207.955 85.6987 207.974 86.4995V90.147C207.974 90.8745 208.067 91.4531 208.252 91.8828V92H206.832ZM204.583 90.9673C205.008 90.9673 205.411 90.8574 205.792 90.6377C206.172 90.418 206.448 90.1323 206.619 89.7808V88.1548H205.557C203.897 88.1548 203.067 88.6406 203.067 89.6123C203.067 90.0371 203.208 90.3691 203.492 90.6084C203.775 90.8477 204.139 90.9673 204.583 90.9673ZM214.712 89.8979C214.712 89.5317 214.573 89.2485 214.295 89.0483C214.021 88.8433 213.541 88.6675 212.852 88.521C212.168 88.3745 211.624 88.1987 211.219 87.9937C210.818 87.7886 210.521 87.5444 210.325 87.2612C210.135 86.978 210.04 86.6411 210.04 86.2505C210.04 85.6011 210.313 85.0518 210.86 84.6025C211.412 84.1533 212.115 83.9287 212.969 83.9287C213.868 83.9287 214.595 84.1606 215.152 84.6245C215.713 85.0884 215.994 85.6816 215.994 86.4043H214.632C214.632 86.0332 214.473 85.7134 214.156 85.4448C213.843 85.1763 213.448 85.042 212.969 85.042C212.476 85.042 212.09 85.1494 211.812 85.3643C211.534 85.5791 211.395 85.8599 211.395 86.2065C211.395 86.5337 211.524 86.7803 211.783 86.9463C212.042 87.1123 212.508 87.271 213.182 87.4224C213.86 87.5737 214.41 87.7544 214.83 87.9644C215.25 88.1743 215.56 88.4282 215.76 88.7261C215.965 89.019 216.067 89.3779 216.067 89.8027C216.067 90.5107 215.784 91.0796 215.218 91.5093C214.651 91.9341 213.917 92.1465 213.013 92.1465C212.378 92.1465 211.817 92.0342 211.329 91.8096C210.84 91.585 210.457 91.2725 210.179 90.8721C209.905 90.4668 209.769 90.0298 209.769 89.561H211.124C211.148 90.0151 211.329 90.3765 211.666 90.645C212.007 90.9087 212.457 91.0405 213.013 91.0405C213.526 91.0405 213.936 90.938 214.244 90.7329C214.556 90.5229 214.712 90.2446 214.712 89.8979ZM224.146 90.0151L225.992 84.0752H227.442L224.256 93.2231C223.763 94.5415 222.979 95.2007 221.905 95.2007L221.648 95.1787L221.143 95.0835V93.9849L221.509 94.0142C221.968 94.0142 222.325 93.9214 222.579 93.7358C222.837 93.5503 223.05 93.2109 223.216 92.7178L223.516 91.9121L220.689 84.0752H222.168L224.146 90.0151ZM235.667 92.1465C234.593 92.1465 233.719 91.7949 233.045 91.0918C232.371 90.3838 232.034 89.439 232.034 88.2573V88.0083C232.034 87.2222 232.183 86.5215 232.481 85.9062C232.784 85.2861 233.204 84.8027 233.741 84.4561C234.283 84.1045 234.869 83.9287 235.499 83.9287C236.529 83.9287 237.33 84.2681 237.901 84.9468C238.472 85.6255 238.758 86.5972 238.758 87.8618V88.4258H233.389C233.409 89.207 233.636 89.8394 234.07 90.3228C234.51 90.8013 235.066 91.0405 235.74 91.0405C236.219 91.0405 236.624 90.9429 236.956 90.7476C237.288 90.5522 237.579 90.2935 237.828 89.9712L238.655 90.6157C237.991 91.6362 236.995 92.1465 235.667 92.1465ZM235.499 85.042C234.952 85.042 234.493 85.2422 234.122 85.6426C233.75 86.0381 233.521 86.5947 233.433 87.3125H237.403V87.21C237.364 86.5215 237.178 85.9893 236.846 85.6133C236.514 85.2324 236.065 85.042 235.499 85.042ZM244.947 89.8979C244.947 89.5317 244.808 89.2485 244.529 89.0483C244.256 88.8433 243.775 88.6675 243.086 88.521C242.403 88.3745 241.858 88.1987 241.453 87.9937C241.053 87.7886 240.755 87.5444 240.56 87.2612C240.369 86.978 240.274 86.6411 240.274 86.2505C240.274 85.6011 240.547 85.0518 241.094 84.6025C241.646 84.1533 242.349 83.9287 243.204 83.9287C244.102 83.9287 244.83 84.1606 245.386 84.6245C245.948 85.0884 246.229 85.6816 246.229 86.4043H244.866C244.866 86.0332 244.708 85.7134 244.39 85.4448C244.078 85.1763 243.682 85.042 243.204 85.042C242.71 85.042 242.325 85.1494 242.046 85.3643C241.768 85.5791 241.629 85.8599 241.629 86.2065C241.629 86.5337 241.758 86.7803 242.017 86.9463C242.276 87.1123 242.742 87.271 243.416 87.4224C244.095 87.5737 244.644 87.7544 245.064 87.9644C245.484 88.1743 245.794 88.4282 245.994 88.7261C246.199 89.019 246.302 89.3779 246.302 89.8027C246.302 90.5107 246.019 91.0796 245.452 91.5093C244.886 91.9341 244.151 92.1465 243.248 92.1465C242.613 92.1465 242.051 92.0342 241.563 91.8096C241.075 91.585 240.691 91.2725 240.413 90.8721C240.14 90.4668 240.003 90.0298 240.003 89.561H241.358C241.382 90.0151 241.563 90.3765 241.9 90.645C242.242 90.9087 242.691 91.0405 243.248 91.0405C243.76 91.0405 244.17 90.938 244.478 90.7329C244.791 90.5229 244.947 90.2446 244.947 89.8979ZM251.246 91.0405C251.729 91.0405 252.151 90.894 252.513 90.6011C252.874 90.3081 253.074 89.9419 253.113 89.5024H254.395C254.371 89.9565 254.214 90.3887 253.926 90.7988C253.638 91.209 253.252 91.5361 252.769 91.7803C252.291 92.0244 251.783 92.1465 251.246 92.1465C250.167 92.1465 249.307 91.7876 248.667 91.0698C248.033 90.3472 247.715 89.3608 247.715 88.1108V87.8838C247.715 87.1123 247.857 86.4263 248.14 85.8257C248.423 85.2251 248.829 84.7588 249.356 84.4268C249.888 84.0947 250.516 83.9287 251.238 83.9287C252.127 83.9287 252.864 84.1948 253.45 84.7271C254.041 85.2593 254.356 85.9502 254.395 86.7998H253.113C253.074 86.2871 252.879 85.8672 252.527 85.54C252.181 85.208 251.751 85.042 251.238 85.042C250.55 85.042 250.015 85.291 249.634 85.7891C249.258 86.2822 249.07 86.9976 249.07 87.9351V88.1914C249.07 89.1045 249.258 89.8076 249.634 90.3008C250.01 90.7939 250.547 91.0405 251.246 91.0405ZM260.811 92C260.733 91.8438 260.669 91.5654 260.621 91.165C259.991 91.8193 259.239 92.1465 258.365 92.1465C257.583 92.1465 256.941 91.9268 256.438 91.4873C255.94 91.043 255.691 90.4814 255.691 89.8027C255.691 88.9775 256.004 88.3379 256.629 87.8838C257.259 87.4248 258.143 87.1953 259.28 87.1953H260.599V86.5728C260.599 86.0991 260.457 85.7231 260.174 85.4448C259.891 85.1616 259.473 85.02 258.921 85.02C258.438 85.02 258.033 85.1421 257.706 85.3862C257.378 85.6304 257.215 85.9258 257.215 86.2725H255.853C255.853 85.877 255.992 85.4961 256.27 85.1299C256.553 84.7588 256.934 84.4658 257.413 84.251C257.896 84.0361 258.426 83.9287 259.002 83.9287C259.915 83.9287 260.63 84.1582 261.148 84.6172C261.666 85.0713 261.934 85.6987 261.954 86.4995V90.147C261.954 90.8745 262.046 91.4531 262.232 91.8828V92H260.811ZM258.562 90.9673C258.987 90.9673 259.39 90.8574 259.771 90.6377C260.152 90.418 260.428 90.1323 260.599 89.7808V88.1548H259.537C257.876 88.1548 257.046 88.6406 257.046 89.6123C257.046 90.0371 257.188 90.3691 257.471 90.6084C257.754 90.8477 258.118 90.9673 258.562 90.9673ZM265.55 92H264.195V80.75H265.55V92ZM272.618 92C272.54 91.8438 272.476 91.5654 272.427 91.165C271.797 91.8193 271.045 92.1465 270.171 92.1465C269.39 92.1465 268.748 91.9268 268.245 91.4873C267.747 91.043 267.498 90.4814 267.498 89.8027C267.498 88.9775 267.811 88.3379 268.436 87.8838C269.065 87.4248 269.949 87.1953 271.087 87.1953H272.405V86.5728C272.405 86.0991 272.264 85.7231 271.98 85.4448C271.697 85.1616 271.28 85.02 270.728 85.02C270.245 85.02 269.839 85.1421 269.512 85.3862C269.185 85.6304 269.021 85.9258 269.021 86.2725H267.659C267.659 85.877 267.798 85.4961 268.077 85.1299C268.36 84.7588 268.741 84.4658 269.219 84.251C269.703 84.0361 270.232 83.9287 270.809 83.9287C271.722 83.9287 272.437 84.1582 272.955 84.6172C273.472 85.0713 273.741 85.6987 273.76 86.4995V90.147C273.76 90.8745 273.853 91.4531 274.039 91.8828V92H272.618ZM270.369 90.9673C270.794 90.9673 271.197 90.8574 271.578 90.6377C271.958 90.418 272.234 90.1323 272.405 89.7808V88.1548H271.343C269.683 88.1548 268.853 88.6406 268.853 89.6123C268.853 90.0371 268.995 90.3691 269.278 90.6084C269.561 90.8477 269.925 90.9673 270.369 90.9673ZM282.593 88.1255C282.593 89.3364 282.315 90.3105 281.758 91.0479C281.202 91.7803 280.455 92.1465 279.517 92.1465C278.516 92.1465 277.742 91.7925 277.195 91.0845L277.129 92H275.884V80.75H277.239V84.9468C277.786 84.2681 278.541 83.9287 279.502 83.9287C280.464 83.9287 281.219 84.2925 281.766 85.02C282.317 85.7476 282.593 86.7437 282.593 88.0083V88.1255ZM281.238 87.9717C281.238 87.0488 281.06 86.3359 280.704 85.833C280.347 85.3301 279.834 85.0786 279.166 85.0786C278.272 85.0786 277.63 85.4937 277.239 86.3237V89.7515C277.654 90.5815 278.301 90.9966 279.18 90.9966C279.83 90.9966 280.335 90.7451 280.696 90.2422C281.058 89.7393 281.238 88.9824 281.238 87.9717ZM285.779 92H284.424V80.75H285.779V92ZM291.243 92.1465C290.169 92.1465 289.295 91.7949 288.621 91.0918C287.947 90.3838 287.61 89.439 287.61 88.2573V88.0083C287.61 87.2222 287.759 86.5215 288.057 85.9062C288.36 85.2861 288.78 84.8027 289.317 84.4561C289.859 84.1045 290.445 83.9287 291.075 83.9287C292.105 83.9287 292.906 84.2681 293.477 84.9468C294.048 85.6255 294.334 86.5972 294.334 87.8618V88.4258H288.965C288.985 89.207 289.212 89.8394 289.646 90.3228C290.086 90.8013 290.643 91.0405 291.316 91.0405C291.795 91.0405 292.2 90.9429 292.532 90.7476C292.864 90.5522 293.155 90.2935 293.404 89.9712L294.231 90.6157C293.567 91.6362 292.571 92.1465 291.243 92.1465ZM291.075 85.042C290.528 85.042 290.069 85.2422 289.698 85.6426C289.327 86.0381 289.097 86.5947 289.009 87.3125H292.979V87.21C292.94 86.5215 292.754 85.9893 292.422 85.6133C292.09 85.2324 291.641 85.042 291.075 85.042ZM300.523 89.8979C300.523 89.5317 300.384 89.2485 300.105 89.0483C299.832 88.8433 299.351 88.6675 298.663 88.521C297.979 88.3745 297.435 88.1987 297.029 87.9937C296.629 87.7886 296.331 87.5444 296.136 87.2612C295.945 86.978 295.85 86.6411 295.85 86.2505C295.85 85.6011 296.124 85.0518 296.67 84.6025C297.222 84.1533 297.925 83.9287 298.78 83.9287C299.678 83.9287 300.406 84.1606 300.962 84.6245C301.524 85.0884 301.805 85.6816 301.805 86.4043H300.442C300.442 86.0332 300.284 85.7134 299.966 85.4448C299.654 85.1763 299.258 85.042 298.78 85.042C298.287 85.042 297.901 85.1494 297.623 85.3643C297.344 85.5791 297.205 85.8599 297.205 86.2065C297.205 86.5337 297.334 86.7803 297.593 86.9463C297.852 87.1123 298.318 87.271 298.992 87.4224C299.671 87.5737 300.22 87.7544 300.64 87.9644C301.06 88.1743 301.37 88.4282 301.57 88.7261C301.775 89.019 301.878 89.3779 301.878 89.8027C301.878 90.5107 301.595 91.0796 301.028 91.5093C300.462 91.9341 299.727 92.1465 298.824 92.1465C298.189 92.1465 297.627 92.0342 297.139 91.8096C296.651 91.585 296.268 91.2725 295.989 90.8721C295.716 90.4668 295.579 90.0298 295.579 89.561H296.934C296.958 90.0151 297.139 90.3765 297.476 90.645C297.818 90.9087 298.267 91.0405 298.824 91.0405C299.336 91.0405 299.747 90.938 300.054 90.7329C300.367 90.5229 300.523 90.2446 300.523 89.8979ZM303.672 91.2896C303.672 91.0552 303.741 90.8599 303.877 90.7036C304.019 90.5474 304.229 90.4692 304.507 90.4692C304.786 90.4692 304.996 90.5474 305.137 90.7036C305.284 90.8599 305.357 91.0552 305.357 91.2896C305.357 91.5142 305.284 91.7021 305.137 91.8535C304.996 92.0049 304.786 92.0806 304.507 92.0806C304.229 92.0806 304.019 92.0049 303.877 91.8535C303.741 91.7021 303.672 91.5142 303.672 91.2896Z" fill="black"/>
<path d="M129.33 118.493H125.902V128H124.503V118.493H121.083V117.336H129.33V118.493ZM133.256 128.146C132.182 128.146 131.308 127.795 130.634 127.092C129.96 126.384 129.623 125.439 129.623 124.257V124.008C129.623 123.222 129.772 122.521 130.07 121.906C130.373 121.286 130.792 120.803 131.33 120.456C131.872 120.104 132.458 119.929 133.087 119.929C134.118 119.929 134.918 120.268 135.49 120.947C136.061 121.625 136.347 122.597 136.347 123.862V124.426H130.978C130.998 125.207 131.225 125.839 131.659 126.323C132.099 126.801 132.655 127.041 133.329 127.041C133.808 127.041 134.213 126.943 134.545 126.748C134.877 126.552 135.167 126.293 135.417 125.971L136.244 126.616C135.58 127.636 134.584 128.146 133.256 128.146ZM133.087 121.042C132.541 121.042 132.082 121.242 131.71 121.643C131.339 122.038 131.11 122.595 131.022 123.312H134.992V123.21C134.953 122.521 134.767 121.989 134.435 121.613C134.103 121.232 133.654 121.042 133.087 121.042ZM146.535 128C146.457 127.844 146.393 127.565 146.344 127.165C145.714 127.819 144.962 128.146 144.088 128.146C143.307 128.146 142.665 127.927 142.162 127.487C141.664 127.043 141.415 126.481 141.415 125.803C141.415 124.978 141.728 124.338 142.353 123.884C142.982 123.425 143.866 123.195 145.004 123.195H146.322V122.573C146.322 122.099 146.181 121.723 145.897 121.445C145.614 121.162 145.197 121.02 144.645 121.02C144.162 121.02 143.756 121.142 143.429 121.386C143.102 121.63 142.938 121.926 142.938 122.272H141.576C141.576 121.877 141.715 121.496 141.994 121.13C142.277 120.759 142.658 120.466 143.136 120.251C143.62 120.036 144.149 119.929 144.726 119.929C145.639 119.929 146.354 120.158 146.872 120.617C147.389 121.071 147.658 121.699 147.677 122.5V126.147C147.677 126.875 147.77 127.453 147.956 127.883V128H146.535ZM144.286 126.967C144.711 126.967 145.114 126.857 145.495 126.638C145.875 126.418 146.151 126.132 146.322 125.781V124.155H145.26C143.6 124.155 142.77 124.641 142.77 125.612C142.77 126.037 142.912 126.369 143.195 126.608C143.478 126.848 143.842 126.967 144.286 126.967ZM152.277 126.015L154.123 120.075H155.573L152.387 129.223C151.894 130.542 151.11 131.201 150.036 131.201L149.779 131.179L149.274 131.083V129.985L149.64 130.014C150.099 130.014 150.456 129.921 150.709 129.736C150.968 129.55 151.181 129.211 151.347 128.718L151.647 127.912L148.82 120.075H150.299L152.277 126.015ZM161.681 127.216C161.154 127.836 160.38 128.146 159.359 128.146C158.515 128.146 157.87 127.902 157.426 127.414C156.986 126.921 156.764 126.193 156.759 125.231V120.075H158.114V125.195C158.114 126.396 158.603 126.997 159.579 126.997C160.614 126.997 161.303 126.611 161.645 125.839V120.075H163V128H161.71L161.681 127.216ZM164.735 123.972C164.735 122.756 165.023 121.779 165.6 121.042C166.176 120.3 166.93 119.929 167.863 119.929C168.791 119.929 169.525 120.246 170.067 120.881V116.75H171.422V128H170.177L170.111 127.15C169.569 127.814 168.815 128.146 167.848 128.146C166.93 128.146 166.181 127.771 165.6 127.019C165.023 126.267 164.735 125.285 164.735 124.074V123.972ZM166.09 124.125C166.09 125.024 166.276 125.727 166.647 126.235C167.018 126.743 167.531 126.997 168.185 126.997C169.044 126.997 169.672 126.611 170.067 125.839V122.199C169.662 121.452 169.04 121.079 168.2 121.079C167.536 121.079 167.018 121.335 166.647 121.848C166.276 122.36 166.09 123.12 166.09 124.125ZM178.424 128C178.346 127.844 178.283 127.565 178.234 127.165C177.604 127.819 176.852 128.146 175.978 128.146C175.197 128.146 174.555 127.927 174.052 127.487C173.554 127.043 173.305 126.481 173.305 125.803C173.305 124.978 173.617 124.338 174.242 123.884C174.872 123.425 175.756 123.195 176.894 123.195H178.212V122.573C178.212 122.099 178.07 121.723 177.787 121.445C177.504 121.162 177.086 121.02 176.535 121.02C176.051 121.02 175.646 121.142 175.319 121.386C174.992 121.63 174.828 121.926 174.828 122.272H173.466C173.466 121.877 173.605 121.496 173.883 121.13C174.167 120.759 174.547 120.466 175.026 120.251C175.509 120.036 176.039 119.929 176.615 119.929C177.528 119.929 178.244 120.158 178.761 120.617C179.279 121.071 179.547 121.699 179.567 122.5V126.147C179.567 126.875 179.66 127.453 179.845 127.883V128H178.424ZM176.176 126.967C176.601 126.967 177.003 126.857 177.384 126.638C177.765 126.418 178.041 126.132 178.212 125.781V124.155H177.15C175.49 124.155 174.66 124.641 174.66 125.612C174.66 126.037 174.801 126.369 175.084 126.608C175.368 126.848 175.731 126.967 176.176 126.967ZM185.521 121.291C185.316 121.257 185.094 121.24 184.855 121.24C183.966 121.24 183.363 121.618 183.046 122.375V128H181.691V120.075H183.009L183.031 120.991C183.476 120.283 184.105 119.929 184.921 119.929C185.185 119.929 185.385 119.963 185.521 120.031V121.291ZM189.916 128.146C188.842 128.146 187.968 127.795 187.294 127.092C186.62 126.384 186.283 125.439 186.283 124.257V124.008C186.283 123.222 186.432 122.521 186.73 121.906C187.033 121.286 187.453 120.803 187.99 120.456C188.532 120.104 189.118 119.929 189.748 119.929C190.778 119.929 191.579 120.268 192.15 120.947C192.721 121.625 193.007 122.597 193.007 123.862V124.426H187.638C187.658 125.207 187.885 125.839 188.319 126.323C188.759 126.801 189.315 127.041 189.989 127.041C190.468 127.041 190.873 126.943 191.205 126.748C191.537 126.552 191.828 126.293 192.077 125.971L192.904 126.616C192.24 127.636 191.244 128.146 189.916 128.146ZM189.748 121.042C189.201 121.042 188.742 121.242 188.371 121.643C188 122.038 187.77 122.595 187.682 123.312H191.652V123.21C191.613 122.521 191.427 121.989 191.095 121.613C190.763 121.232 190.314 121.042 189.748 121.042ZM190.407 116.75H192.047L190.084 118.903H188.993L190.407 116.75ZM203.195 128C203.117 127.844 203.053 127.565 203.004 127.165C202.375 127.819 201.623 128.146 200.749 128.146C199.967 128.146 199.325 127.927 198.822 127.487C198.324 127.043 198.075 126.481 198.075 125.803C198.075 124.978 198.388 124.338 199.013 123.884C199.643 123.425 200.526 123.195 201.664 123.195H202.982V122.573C202.982 122.099 202.841 121.723 202.558 121.445C202.274 121.162 201.857 121.02 201.305 121.02C200.822 121.02 200.417 121.142 200.089 121.386C199.762 121.63 199.599 121.926 199.599 122.272H198.236C198.236 121.877 198.375 121.496 198.654 121.13C198.937 120.759 199.318 120.466 199.796 120.251C200.28 120.036 200.81 119.929 201.386 119.929C202.299 119.929 203.014 120.158 203.532 120.617C204.049 121.071 204.318 121.699 204.337 122.5V126.147C204.337 126.875 204.43 127.453 204.616 127.883V128H203.195ZM200.946 126.967C201.371 126.967 201.774 126.857 202.155 126.638C202.536 126.418 202.812 126.132 202.982 125.781V124.155H201.92C200.26 124.155 199.43 124.641 199.43 125.612C199.43 126.037 199.572 126.369 199.855 126.608C200.138 126.848 200.502 126.967 200.946 126.967ZM209.853 123.972C209.853 122.756 210.141 121.779 210.717 121.042C211.293 120.3 212.047 119.929 212.98 119.929C213.908 119.929 214.643 120.246 215.185 120.881V116.75H216.54V128H215.294L215.229 127.15C214.687 127.814 213.932 128.146 212.965 128.146C212.047 128.146 211.298 127.771 210.717 127.019C210.141 126.267 209.853 125.285 209.853 124.074V123.972ZM211.208 124.125C211.208 125.024 211.393 125.727 211.764 126.235C212.135 126.743 212.648 126.997 213.302 126.997C214.162 126.997 214.789 126.611 215.185 125.839V122.199C214.779 121.452 214.157 121.079 213.317 121.079C212.653 121.079 212.135 121.335 211.764 121.848C211.393 122.36 211.208 123.12 211.208 124.125ZM223.542 128C223.463 127.844 223.4 127.565 223.351 127.165C222.721 127.819 221.969 128.146 221.095 128.146C220.314 128.146 219.672 127.927 219.169 127.487C218.671 127.043 218.422 126.481 218.422 125.803C218.422 124.978 218.734 124.338 219.359 123.884C219.989 123.425 220.873 123.195 222.011 123.195H223.329V122.573C223.329 122.099 223.188 121.723 222.904 121.445C222.621 121.162 222.204 121.02 221.652 121.02C221.168 121.02 220.763 121.142 220.436 121.386C220.109 121.63 219.945 121.926 219.945 122.272H218.583C218.583 121.877 218.722 121.496 219 121.13C219.284 120.759 219.665 120.466 220.143 120.251C220.626 120.036 221.156 119.929 221.732 119.929C222.646 119.929 223.361 120.158 223.878 120.617C224.396 121.071 224.665 121.699 224.684 122.5V126.147C224.684 126.875 224.777 127.453 224.962 127.883V128H223.542ZM221.293 126.967C221.718 126.967 222.121 126.857 222.501 126.638C222.882 126.418 223.158 126.132 223.329 125.781V124.155H222.267C220.607 124.155 219.777 124.641 219.777 125.612C219.777 126.037 219.918 126.369 220.202 126.608C220.485 126.848 220.849 126.967 221.293 126.967ZM230.639 121.291C230.434 121.257 230.211 121.24 229.972 121.24C229.083 121.24 228.48 121.618 228.163 122.375V128H226.808V120.075H228.126L228.148 120.991C228.593 120.283 229.223 119.929 230.038 119.929C230.302 119.929 230.502 119.963 230.639 120.031V121.291ZM238.9 128.146C237.826 128.146 236.952 127.795 236.278 127.092C235.604 126.384 235.268 125.439 235.268 124.257V124.008C235.268 123.222 235.417 122.521 235.714 121.906C236.017 121.286 236.437 120.803 236.974 120.456C237.516 120.104 238.102 119.929 238.732 119.929C239.762 119.929 240.563 120.268 241.134 120.947C241.706 121.625 241.991 122.597 241.991 123.862V124.426H236.623C236.642 125.207 236.869 125.839 237.304 126.323C237.743 126.801 238.3 127.041 238.974 127.041C239.452 127.041 239.857 126.943 240.189 126.748C240.521 126.552 240.812 126.293 241.061 125.971L241.889 126.616C241.225 127.636 240.229 128.146 238.9 128.146ZM238.732 121.042C238.185 121.042 237.726 121.242 237.355 121.643C236.984 122.038 236.754 122.595 236.667 123.312H240.636V123.21C240.597 122.521 240.412 121.989 240.08 121.613C239.748 121.232 239.298 121.042 238.732 121.042ZM245.038 128H243.683V116.75H245.038V128ZM255.548 125.898C255.548 125.532 255.409 125.249 255.131 125.048C254.857 124.843 254.376 124.667 253.688 124.521C253.004 124.375 252.46 124.199 252.055 123.994C251.654 123.789 251.356 123.544 251.161 123.261C250.971 122.978 250.875 122.641 250.875 122.25C250.875 121.601 251.149 121.052 251.696 120.603C252.248 120.153 252.951 119.929 253.805 119.929C254.704 119.929 255.431 120.161 255.988 120.625C256.549 121.088 256.83 121.682 256.83 122.404H255.468C255.468 122.033 255.309 121.713 254.992 121.445C254.679 121.176 254.284 121.042 253.805 121.042C253.312 121.042 252.926 121.149 252.648 121.364C252.37 121.579 252.23 121.86 252.23 122.207C252.23 122.534 252.36 122.78 252.619 122.946C252.877 123.112 253.344 123.271 254.018 123.422C254.696 123.574 255.246 123.754 255.666 123.964C256.085 124.174 256.396 124.428 256.596 124.726C256.801 125.019 256.903 125.378 256.903 125.803C256.903 126.511 256.62 127.08 256.054 127.509C255.487 127.934 254.752 128.146 253.849 128.146C253.214 128.146 252.653 128.034 252.165 127.81C251.676 127.585 251.293 127.272 251.015 126.872C250.741 126.467 250.604 126.03 250.604 125.561H251.959C251.984 126.015 252.165 126.376 252.501 126.645C252.843 126.909 253.292 127.041 253.849 127.041C254.362 127.041 254.772 126.938 255.08 126.733C255.392 126.523 255.548 126.245 255.548 125.898ZM260.141 128H258.786V120.075H260.141V128ZM258.676 117.973C258.676 117.753 258.742 117.568 258.874 117.417C259.01 117.265 259.21 117.189 259.474 117.189C259.738 117.189 259.938 117.265 260.075 117.417C260.211 117.568 260.28 117.753 260.28 117.973C260.28 118.193 260.211 118.376 260.075 118.522C259.938 118.669 259.738 118.742 259.474 118.742C259.21 118.742 259.01 118.669 258.874 118.522C258.742 118.376 258.676 118.193 258.676 117.973ZM261.994 123.972C261.994 122.736 262.279 121.755 262.851 121.027C263.422 120.295 264.179 119.929 265.121 119.929C266.088 119.929 266.842 120.271 267.384 120.954L267.45 120.075H268.688V127.81C268.688 128.835 268.383 129.643 267.772 130.234C267.167 130.825 266.352 131.12 265.326 131.12C264.755 131.12 264.196 130.998 263.649 130.754C263.102 130.51 262.685 130.175 262.396 129.75L263.1 128.938C263.681 129.655 264.391 130.014 265.231 130.014C265.89 130.014 266.403 129.829 266.769 129.458C267.14 129.086 267.326 128.564 267.326 127.89V127.209C266.784 127.834 266.044 128.146 265.106 128.146C264.179 128.146 263.427 127.773 262.851 127.026C262.279 126.279 261.994 125.261 261.994 123.972ZM263.356 124.125C263.356 125.019 263.539 125.722 263.905 126.235C264.271 126.743 264.784 126.997 265.443 126.997C266.298 126.997 266.925 126.608 267.326 125.832V122.214C266.911 121.457 266.288 121.079 265.458 121.079C264.799 121.079 264.284 121.335 263.913 121.848C263.542 122.36 263.356 123.12 263.356 124.125ZM275.631 127.216C275.104 127.836 274.33 128.146 273.31 128.146C272.465 128.146 271.82 127.902 271.376 127.414C270.937 126.921 270.714 126.193 270.709 125.231V120.075H272.064V125.195C272.064 126.396 272.553 126.997 273.529 126.997C274.564 126.997 275.253 126.611 275.595 125.839V120.075H276.95V128H275.661L275.631 127.216ZM280.487 128H279.132V120.075H280.487V128ZM279.022 117.973C279.022 117.753 279.088 117.568 279.22 117.417C279.357 117.265 279.557 117.189 279.821 117.189C280.084 117.189 280.285 117.265 280.421 117.417C280.558 117.568 280.626 117.753 280.626 117.973C280.626 118.193 280.558 118.376 280.421 118.522C280.285 118.669 280.084 118.742 279.821 118.742C279.557 118.742 279.357 118.669 279.22 118.522C279.088 118.376 279.022 118.193 279.022 117.973ZM285.951 128.146C284.877 128.146 284.003 127.795 283.329 127.092C282.655 126.384 282.318 125.439 282.318 124.257V124.008C282.318 123.222 282.467 122.521 282.765 121.906C283.068 121.286 283.488 120.803 284.025 120.456C284.567 120.104 285.153 119.929 285.783 119.929C286.813 119.929 287.614 120.268 288.185 120.947C288.756 121.625 289.042 122.597 289.042 123.862V124.426H283.673C283.693 125.207 283.92 125.839 284.354 126.323C284.794 126.801 285.351 127.041 286.024 127.041C286.503 127.041 286.908 126.943 287.24 126.748C287.572 126.552 287.863 126.293 288.112 125.971L288.939 126.616C288.275 127.636 287.279 128.146 285.951 128.146ZM285.783 121.042C285.236 121.042 284.777 121.242 284.406 121.643C284.035 122.038 283.805 122.595 283.717 123.312H287.687V123.21C287.648 122.521 287.462 121.989 287.13 121.613C286.798 121.232 286.349 121.042 285.783 121.042ZM291.898 120.075L291.942 121.071C292.548 120.31 293.339 119.929 294.315 119.929C295.99 119.929 296.835 120.874 296.85 122.763V128H295.495V122.756C295.49 122.185 295.358 121.762 295.099 121.489C294.845 121.215 294.447 121.079 293.905 121.079C293.466 121.079 293.08 121.196 292.748 121.43C292.416 121.665 292.157 121.972 291.972 122.353V128H290.617V120.075H291.898ZM300.731 118.156V120.075H302.211V121.123H300.731V126.037C300.731 126.354 300.797 126.594 300.929 126.755C301.061 126.911 301.286 126.989 301.603 126.989C301.759 126.989 301.974 126.96 302.248 126.901V128C301.891 128.098 301.544 128.146 301.208 128.146C300.602 128.146 300.146 127.963 299.838 127.597C299.53 127.231 299.376 126.711 299.376 126.037V121.123H297.934V120.075H299.376V118.156H300.731ZM307.089 128.146C306.015 128.146 305.141 127.795 304.467 127.092C303.793 126.384 303.456 125.439 303.456 124.257V124.008C303.456 123.222 303.605 122.521 303.903 121.906C304.206 121.286 304.625 120.803 305.163 120.456C305.705 120.104 306.291 119.929 306.92 119.929C307.951 119.929 308.751 120.268 309.323 120.947C309.894 121.625 310.18 122.597 310.18 123.862V124.426H304.811C304.831 125.207 305.058 125.839 305.492 126.323C305.932 126.801 306.488 127.041 307.162 127.041C307.641 127.041 308.046 126.943 308.378 126.748C308.71 126.552 309 126.293 309.25 125.971L310.077 126.616C309.413 127.636 308.417 128.146 307.089 128.146ZM306.92 121.042C306.374 121.042 305.915 121.242 305.543 121.643C305.172 122.038 304.943 122.595 304.855 123.312H308.825V123.21C308.786 122.521 308.6 121.989 308.268 121.613C307.936 121.232 307.487 121.042 306.92 121.042ZM322.169 124.125C322.169 125.332 321.894 126.303 321.342 127.041C320.79 127.778 320.043 128.146 319.101 128.146C318.139 128.146 317.382 127.841 316.83 127.231V131.047H315.475V120.075H316.713L316.779 120.954C317.331 120.271 318.097 119.929 319.079 119.929C320.031 119.929 320.783 120.288 321.334 121.005C321.891 121.723 322.169 122.722 322.169 124.001V124.125ZM320.814 123.972C320.814 123.078 320.624 122.373 320.243 121.855C319.862 121.337 319.34 121.079 318.676 121.079C317.855 121.079 317.24 121.442 316.83 122.17V125.957C317.235 126.679 317.855 127.041 318.69 127.041C319.34 127.041 319.855 126.784 320.236 126.271C320.622 125.754 320.814 124.987 320.814 123.972ZM328.791 128C328.712 127.844 328.649 127.565 328.6 127.165C327.97 127.819 327.218 128.146 326.344 128.146C325.563 128.146 324.921 127.927 324.418 127.487C323.92 127.043 323.671 126.481 323.671 125.803C323.671 124.978 323.983 124.338 324.608 123.884C325.238 123.425 326.122 123.195 327.26 123.195H328.578V122.573C328.578 122.099 328.437 121.723 328.153 121.445C327.87 121.162 327.453 121.02 326.901 121.02C326.417 121.02 326.012 121.142 325.685 121.386C325.358 121.63 325.194 121.926 325.194 122.272H323.832C323.832 121.877 323.971 121.496 324.25 121.13C324.533 120.759 324.914 120.466 325.392 120.251C325.875 120.036 326.405 119.929 326.981 119.929C327.895 119.929 328.61 120.158 329.127 120.617C329.645 121.071 329.914 121.699 329.933 122.5V126.147C329.933 126.875 330.026 127.453 330.211 127.883V128H328.791ZM326.542 126.967C326.967 126.967 327.37 126.857 327.75 126.638C328.131 126.418 328.407 126.132 328.578 125.781V124.155H327.516C325.856 124.155 325.026 124.641 325.026 125.612C325.026 126.037 325.167 126.369 325.451 126.608C325.734 126.848 326.098 126.967 326.542 126.967ZM336.671 125.898C336.671 125.532 336.532 125.249 336.254 125.048C335.98 124.843 335.5 124.667 334.811 124.521C334.127 124.375 333.583 124.199 333.178 123.994C332.777 123.789 332.479 123.544 332.284 123.261C332.094 122.978 331.999 122.641 331.999 122.25C331.999 121.601 332.272 121.052 332.819 120.603C333.371 120.153 334.074 119.929 334.928 119.929C335.827 119.929 336.554 120.161 337.111 120.625C337.672 121.088 337.953 121.682 337.953 122.404H336.591C336.591 122.033 336.432 121.713 336.115 121.445C335.802 121.176 335.407 121.042 334.928 121.042C334.435 121.042 334.049 121.149 333.771 121.364C333.493 121.579 333.354 121.86 333.354 122.207C333.354 122.534 333.483 122.78 333.742 122.946C334 123.112 334.467 123.271 335.141 123.422C335.819 123.574 336.369 123.754 336.789 123.964C337.208 124.174 337.519 124.428 337.719 124.726C337.924 125.019 338.026 125.378 338.026 125.803C338.026 126.511 337.743 127.08 337.177 127.509C336.61 127.934 335.875 128.146 334.972 128.146C334.337 128.146 333.776 128.034 333.288 127.81C332.799 127.585 332.416 127.272 332.138 126.872C331.864 126.467 331.728 126.03 331.728 125.561H333.083C333.107 126.015 333.288 126.376 333.625 126.645C333.966 126.909 334.416 127.041 334.972 127.041C335.485 127.041 335.895 126.938 336.203 126.733C336.515 126.523 336.671 126.245 336.671 125.898ZM339.433 123.964C339.433 123.188 339.584 122.49 339.887 121.87C340.194 121.25 340.619 120.771 341.161 120.434C341.708 120.097 342.331 119.929 343.029 119.929C344.108 119.929 344.979 120.302 345.644 121.049C346.312 121.796 346.647 122.79 346.647 124.03V124.125C346.647 124.897 346.498 125.59 346.2 126.206C345.907 126.816 345.485 127.292 344.933 127.634C344.386 127.976 343.756 128.146 343.043 128.146C341.969 128.146 341.098 127.773 340.429 127.026C339.765 126.279 339.433 125.29 339.433 124.06V123.964ZM340.795 124.125C340.795 125.004 340.998 125.71 341.403 126.242C341.813 126.774 342.36 127.041 343.043 127.041C343.732 127.041 344.279 126.772 344.684 126.235C345.089 125.693 345.292 124.936 345.292 123.964C345.292 123.095 345.084 122.392 344.669 121.855C344.259 121.313 343.712 121.042 343.029 121.042C342.36 121.042 341.82 121.308 341.41 121.84C341 122.373 340.795 123.134 340.795 124.125ZM348.375 127.29C348.375 127.055 348.444 126.86 348.581 126.704C348.722 126.547 348.932 126.469 349.21 126.469C349.489 126.469 349.699 126.547 349.84 126.704C349.987 126.86 350.06 127.055 350.06 127.29C350.06 127.514 349.987 127.702 349.84 127.854C349.699 128.005 349.489 128.081 349.21 128.081C348.932 128.081 348.722 128.005 348.581 127.854C348.444 127.702 348.375 127.514 348.375 127.29Z" fill="black"/>
<rect x="42" y="17" width="113" height="21" rx="10.5" fill="white"/>
<rect x="322" y="17" width="113" height="21" rx="10.5" fill="white"/>
<rect x="174" y="17" width="52" height="21" rx="10.5" fill="white"/>
<rect x="245" y="17" width="52" height="21" rx="10.5" fill="white"/>
<rect x="42" y="170" width="113" height="21" rx="10.5" fill="white"/>
<rect x="322" y="170" width="113" height="21" rx="10.5" fill="white"/>
<rect x="174" y="170" width="52" height="21" rx="10.5" fill="white"/>
<rect x="245" y="170" width="52" height="21" rx="10.5" fill="white"/>
</svg>
