<svg width="393" height="209" viewBox="0 0 393 209" fill="none" xmlns="http://www.w3.org/2000/svg">
<rect width="393" height="209" fill="#F7F7F7"/>
<path d="M309.415 62L392.915 62L392.915 13L309.415 13C258.428 13 268.928 62 309.415 62Z" fill="white"/>
<path d="M-7.25609e-06 13C22.013 13 43.1243 21.7446 58.6899 37.3101C74.2554 52.8757 83 73.987 83 96C83 118.013 74.2554 139.124 58.6899 154.69C43.1243 170.255 22.013 179 1.52588e-05 179L-3.62805e-06 96L-7.25609e-06 13Z" fill="white"/>
<circle cx="113.5" cy="158.5" r="24.5" fill="white"/>
<path d="M177.643 161.27C177.643 160.716 177.447 160.293 177.057 160C176.666 159.701 175.963 159.388 174.947 159.062C173.932 158.73 173.128 158.405 172.535 158.086C170.921 157.214 170.113 156.038 170.113 154.561C170.113 153.792 170.328 153.109 170.758 152.51C171.194 151.904 171.816 151.432 172.623 151.094C173.437 150.755 174.348 150.586 175.357 150.586C176.373 150.586 177.278 150.771 178.072 151.143C178.867 151.507 179.482 152.025 179.918 152.695C180.361 153.366 180.582 154.128 180.582 154.98H177.652C177.652 154.329 177.447 153.825 177.037 153.467C176.627 153.102 176.051 152.92 175.309 152.92C174.592 152.92 174.036 153.073 173.639 153.379C173.242 153.678 173.043 154.076 173.043 154.57C173.043 155.033 173.274 155.42 173.736 155.732C174.205 156.045 174.892 156.338 175.797 156.611C177.464 157.113 178.678 157.734 179.439 158.477C180.201 159.219 180.582 160.143 180.582 161.25C180.582 162.48 180.117 163.447 179.186 164.15C178.255 164.847 177.001 165.195 175.426 165.195C174.332 165.195 173.336 164.997 172.438 164.6C171.539 164.196 170.852 163.646 170.377 162.949C169.908 162.253 169.674 161.445 169.674 160.527H172.613C172.613 162.096 173.551 162.881 175.426 162.881C176.122 162.881 176.666 162.741 177.057 162.461C177.447 162.174 177.643 161.777 177.643 161.27ZM181.949 159.619C181.949 158.571 182.151 157.637 182.555 156.816C182.958 155.996 183.538 155.361 184.293 154.912C185.055 154.463 185.937 154.238 186.939 154.238C188.365 154.238 189.527 154.674 190.426 155.547C191.331 156.419 191.835 157.604 191.939 159.102L191.959 159.824C191.959 161.445 191.507 162.747 190.602 163.73C189.697 164.707 188.482 165.195 186.959 165.195C185.436 165.195 184.218 164.707 183.307 163.73C182.402 162.754 181.949 161.426 181.949 159.746V159.619ZM184.771 159.824C184.771 160.827 184.96 161.595 185.338 162.129C185.715 162.656 186.256 162.92 186.959 162.92C187.643 162.92 188.176 162.66 188.561 162.139C188.945 161.611 189.137 160.771 189.137 159.619C189.137 158.636 188.945 157.874 188.561 157.334C188.176 156.794 187.636 156.523 186.939 156.523C186.249 156.523 185.715 156.794 185.338 157.334C184.96 157.868 184.771 158.698 184.771 159.824ZM197.486 161.006L199.439 154.434H202.467L198.219 166.641L197.984 167.197C197.353 168.577 196.311 169.268 194.859 169.268C194.449 169.268 194.033 169.206 193.609 169.082V166.943L194.039 166.953C194.573 166.953 194.97 166.872 195.23 166.709C195.497 166.546 195.706 166.276 195.855 165.898L196.188 165.029L192.486 154.434H195.523L197.486 161.006ZM208.746 165V150.781H213.121C214.371 150.781 215.488 151.064 216.471 151.631C217.46 152.191 218.232 152.992 218.785 154.033C219.339 155.068 219.615 156.247 219.615 157.568V158.223C219.615 159.544 219.342 160.719 218.795 161.748C218.255 162.777 217.49 163.574 216.5 164.141C215.51 164.707 214.394 164.993 213.15 165H208.746ZM211.676 153.154V162.646H213.092C214.238 162.646 215.113 162.272 215.719 161.523C216.324 160.775 216.633 159.704 216.646 158.311V157.559C216.646 156.113 216.347 155.02 215.748 154.277C215.149 153.529 214.273 153.154 213.121 153.154H211.676ZM226.432 165.195C224.882 165.195 223.619 164.72 222.643 163.77C221.673 162.819 221.188 161.553 221.188 159.971V159.697C221.188 158.636 221.393 157.689 221.803 156.855C222.213 156.016 222.792 155.371 223.541 154.922C224.296 154.466 225.156 154.238 226.119 154.238C227.564 154.238 228.701 154.694 229.527 155.605C230.361 156.517 230.777 157.809 230.777 159.482V160.635H224.049C224.14 161.325 224.413 161.878 224.869 162.295C225.331 162.712 225.914 162.92 226.617 162.92C227.704 162.92 228.554 162.526 229.166 161.738L230.553 163.291C230.13 163.89 229.557 164.359 228.834 164.697C228.111 165.029 227.311 165.195 226.432 165.195ZM226.109 156.523C225.549 156.523 225.094 156.712 224.742 157.09C224.397 157.467 224.176 158.008 224.078 158.711H228.004V158.486C227.991 157.861 227.822 157.38 227.496 157.041C227.171 156.696 226.708 156.523 226.109 156.523ZM238.111 162.08C238.111 161.735 237.939 161.465 237.594 161.27C237.255 161.068 236.708 160.889 235.953 160.732C233.44 160.205 232.184 159.137 232.184 157.529C232.184 156.592 232.571 155.811 233.346 155.186C234.127 154.554 235.146 154.238 236.402 154.238C237.743 154.238 238.814 154.554 239.615 155.186C240.423 155.817 240.826 156.637 240.826 157.646H238.004C238.004 157.243 237.874 156.911 237.613 156.65C237.353 156.383 236.946 156.25 236.393 156.25C235.917 156.25 235.549 156.357 235.289 156.572C235.029 156.787 234.898 157.061 234.898 157.393C234.898 157.705 235.045 157.959 235.338 158.154C235.637 158.343 236.139 158.509 236.842 158.652C237.545 158.789 238.137 158.945 238.619 159.121C240.11 159.668 240.855 160.615 240.855 161.963C240.855 162.926 240.442 163.708 239.615 164.307C238.788 164.899 237.721 165.195 236.412 165.195C235.527 165.195 234.739 165.039 234.049 164.727C233.365 164.408 232.828 163.975 232.438 163.428C232.047 162.874 231.852 162.279 231.852 161.641H234.527C234.553 162.142 234.739 162.526 235.084 162.793C235.429 163.06 235.891 163.193 236.471 163.193C237.011 163.193 237.418 163.092 237.691 162.891C237.971 162.682 238.111 162.412 238.111 162.08ZM248.805 165C248.674 164.746 248.58 164.43 248.521 164.053C247.838 164.814 246.949 165.195 245.855 165.195C244.82 165.195 243.961 164.896 243.277 164.297C242.6 163.698 242.262 162.943 242.262 162.031C242.262 160.911 242.675 160.052 243.502 159.453C244.335 158.854 245.536 158.551 247.105 158.545H248.404V157.939C248.404 157.451 248.277 157.061 248.023 156.768C247.776 156.475 247.382 156.328 246.842 156.328C246.367 156.328 245.992 156.442 245.719 156.67C245.452 156.898 245.318 157.21 245.318 157.607H242.496C242.496 156.995 242.685 156.429 243.062 155.908C243.44 155.387 243.974 154.98 244.664 154.688C245.354 154.388 246.129 154.238 246.988 154.238C248.29 154.238 249.322 154.567 250.084 155.225C250.852 155.876 251.236 156.794 251.236 157.979V162.559C251.243 163.561 251.383 164.32 251.656 164.834V165H248.805ZM246.471 163.037C246.887 163.037 247.271 162.946 247.623 162.764C247.975 162.575 248.235 162.324 248.404 162.012V160.195H247.35C245.937 160.195 245.185 160.684 245.094 161.66L245.084 161.826C245.084 162.178 245.208 162.467 245.455 162.695C245.702 162.923 246.041 163.037 246.471 163.037ZM259.342 157.08C258.958 157.028 258.619 157.002 258.326 157.002C257.258 157.002 256.559 157.363 256.227 158.086V165H253.404V154.434H256.07L256.148 155.693C256.715 154.723 257.499 154.238 258.502 154.238C258.814 154.238 259.107 154.281 259.381 154.365L259.342 157.08ZM266.646 157.08C266.262 157.028 265.924 157.002 265.631 157.002C264.563 157.002 263.863 157.363 263.531 158.086V165H260.709V154.434H263.375L263.453 155.693C264.02 154.723 264.804 154.238 265.807 154.238C266.119 154.238 266.412 154.281 266.686 154.365L266.646 157.08ZM267.223 159.619C267.223 158.571 267.424 157.637 267.828 156.816C268.232 155.996 268.811 155.361 269.566 154.912C270.328 154.463 271.21 154.238 272.213 154.238C273.639 154.238 274.801 154.674 275.699 155.547C276.604 156.419 277.109 157.604 277.213 159.102L277.232 159.824C277.232 161.445 276.78 162.747 275.875 163.73C274.97 164.707 273.756 165.195 272.232 165.195C270.709 165.195 269.492 164.707 268.58 163.73C267.675 162.754 267.223 161.426 267.223 159.746V159.619ZM270.045 159.824C270.045 160.827 270.234 161.595 270.611 162.129C270.989 162.656 271.529 162.92 272.232 162.92C272.916 162.92 273.45 162.66 273.834 162.139C274.218 161.611 274.41 160.771 274.41 159.619C274.41 158.636 274.218 157.874 273.834 157.334C273.45 156.794 272.91 156.523 272.213 156.523C271.523 156.523 270.989 156.794 270.611 157.334C270.234 157.868 270.045 158.698 270.045 159.824ZM281.949 165H279.117V150H281.949V165ZM287.262 165H284.43V150H287.262V165ZM295.719 165C295.589 164.746 295.494 164.43 295.436 164.053C294.752 164.814 293.863 165.195 292.77 165.195C291.734 165.195 290.875 164.896 290.191 164.297C289.514 163.698 289.176 162.943 289.176 162.031C289.176 160.911 289.589 160.052 290.416 159.453C291.249 158.854 292.451 158.551 294.02 158.545H295.318V157.939C295.318 157.451 295.191 157.061 294.938 156.768C294.69 156.475 294.296 156.328 293.756 156.328C293.281 156.328 292.906 156.442 292.633 156.67C292.366 156.898 292.232 157.21 292.232 157.607H289.41C289.41 156.995 289.599 156.429 289.977 155.908C290.354 155.387 290.888 154.98 291.578 154.688C292.268 154.388 293.043 154.238 293.902 154.238C295.204 154.238 296.236 154.567 296.998 155.225C297.766 155.876 298.15 156.794 298.15 157.979V162.559C298.157 163.561 298.297 164.32 298.57 164.834V165H295.719ZM293.385 163.037C293.801 163.037 294.186 162.946 294.537 162.764C294.889 162.575 295.149 162.324 295.318 162.012V160.195H294.264C292.851 160.195 292.099 160.684 292.008 161.66L291.998 161.826C291.998 162.178 292.122 162.467 292.369 162.695C292.617 162.923 292.955 163.037 293.385 163.037ZM299.879 159.639C299.879 157.992 300.247 156.68 300.982 155.703C301.725 154.727 302.737 154.238 304.02 154.238C305.048 154.238 305.898 154.622 306.568 155.391V150H309.4V165H306.852L306.715 163.877C306.012 164.756 305.107 165.195 304 165.195C302.757 165.195 301.757 164.707 301.002 163.73C300.253 162.747 299.879 161.383 299.879 159.639ZM302.701 159.844C302.701 160.833 302.874 161.592 303.219 162.119C303.564 162.646 304.065 162.91 304.723 162.91C305.595 162.91 306.21 162.542 306.568 161.807V157.637C306.217 156.901 305.608 156.533 304.742 156.533C303.382 156.533 302.701 157.637 302.701 159.844ZM311.148 159.619C311.148 158.571 311.35 157.637 311.754 156.816C312.158 155.996 312.737 155.361 313.492 154.912C314.254 154.463 315.136 154.238 316.139 154.238C317.564 154.238 318.727 154.674 319.625 155.547C320.53 156.419 321.035 157.604 321.139 159.102L321.158 159.824C321.158 161.445 320.706 162.747 319.801 163.73C318.896 164.707 317.682 165.195 316.158 165.195C314.635 165.195 313.417 164.707 312.506 163.73C311.601 162.754 311.148 161.426 311.148 159.746V159.619ZM313.971 159.824C313.971 160.827 314.16 161.595 314.537 162.129C314.915 162.656 315.455 162.92 316.158 162.92C316.842 162.92 317.376 162.66 317.76 162.139C318.144 161.611 318.336 160.771 318.336 159.619C318.336 158.636 318.144 157.874 317.76 157.334C317.376 156.794 316.835 156.523 316.139 156.523C315.449 156.523 314.915 156.794 314.537 157.334C314.16 157.868 313.971 158.698 313.971 159.824ZM328.834 157.08C328.45 157.028 328.111 157.002 327.818 157.002C326.751 157.002 326.051 157.363 325.719 158.086V165H322.896V154.434H325.562L325.641 155.693C326.207 154.723 326.992 154.238 327.994 154.238C328.307 154.238 328.6 154.281 328.873 154.365L328.834 157.08ZM346.441 160.898L348.355 150.781H351.275L348.121 165H345.172L342.857 155.488L340.543 165H337.594L334.439 150.781H337.359L339.283 160.879L341.627 150.781H344.107L346.441 160.898ZM357.232 165.195C355.683 165.195 354.42 164.72 353.443 163.77C352.473 162.819 351.988 161.553 351.988 159.971V159.697C351.988 158.636 352.193 157.689 352.604 156.855C353.014 156.016 353.593 155.371 354.342 154.922C355.097 154.466 355.956 154.238 356.92 154.238C358.365 154.238 359.501 154.694 360.328 155.605C361.161 156.517 361.578 157.809 361.578 159.482V160.635H354.85C354.941 161.325 355.214 161.878 355.67 162.295C356.132 162.712 356.715 162.92 357.418 162.92C358.505 162.92 359.355 162.526 359.967 161.738L361.354 163.291C360.93 163.89 360.357 164.359 359.635 164.697C358.912 165.029 358.111 165.195 357.232 165.195ZM356.91 156.523C356.35 156.523 355.895 156.712 355.543 157.09C355.198 157.467 354.977 158.008 354.879 158.711H358.805V158.486C358.792 157.861 358.622 157.38 358.297 157.041C357.971 156.696 357.509 156.523 356.91 156.523ZM372.711 159.814C372.711 161.507 372.35 162.829 371.627 163.779C370.904 164.723 369.895 165.195 368.6 165.195C367.454 165.195 366.539 164.756 365.855 163.877L365.729 165H363.189V150H366.012V155.381C366.663 154.619 367.519 154.238 368.58 154.238C369.869 154.238 370.878 154.714 371.607 155.664C372.343 156.608 372.711 157.939 372.711 159.658V159.814ZM369.889 159.609C369.889 158.542 369.719 157.764 369.381 157.275C369.042 156.781 368.538 156.533 367.867 156.533C366.969 156.533 366.35 156.901 366.012 157.637V161.807C366.357 162.549 366.982 162.92 367.887 162.92C368.798 162.92 369.397 162.471 369.684 161.572C369.82 161.143 369.889 160.488 369.889 159.609Z" fill="#323232" fill-opacity="0.5"/>
</svg>
