<svg width="393" height="209" viewBox="0 0 393 209" fill="none" xmlns="http://www.w3.org/2000/svg">
<rect width="393" height="209" fill="#F7F7F7"/>
<path d="M309.415 62L392.915 62L392.915 13L309.415 13C258.428 13 268.928 62 309.415 62Z" fill="white"/>
<path d="M-7.25609e-06 13C22.013 13 43.1243 21.7446 58.6899 37.3101C74.2554 52.8757 83 73.987 83 96C83 118.013 74.2554 139.124 58.6899 154.69C43.1243 170.255 22.013 179 1.52588e-05 179L-3.62805e-06 96L-7.25609e-06 13Z" fill="white"/>
<circle cx="113.5" cy="158.5" r="24.5" fill="white"/>
<path d="M159.385 165H156.455V150.781H159.385V165ZM162.734 155.146L161.406 154.375C161.966 153.496 162.256 152.588 162.275 151.65V150H164.521V151.514C164.521 152.1 164.359 152.734 164.033 153.418C163.708 154.102 163.275 154.678 162.734 155.146ZM168.965 154.434L169.053 155.615C169.801 154.697 170.814 154.238 172.09 154.238C173.451 154.238 174.385 154.775 174.893 155.85C175.635 154.775 176.693 154.238 178.066 154.238C179.212 154.238 180.065 154.574 180.625 155.244C181.185 155.908 181.465 156.911 181.465 158.252V165H178.633V158.262C178.633 157.663 178.516 157.227 178.281 156.953C178.047 156.673 177.633 156.533 177.041 156.533C176.195 156.533 175.609 156.937 175.283 157.744L175.293 165H172.471V158.271C172.471 157.66 172.35 157.217 172.109 156.943C171.868 156.67 171.458 156.533 170.879 156.533C170.078 156.533 169.499 156.865 169.141 157.529V165H166.318V154.434H168.965ZM194.746 165C194.616 164.746 194.521 164.43 194.463 164.053C193.779 164.814 192.891 165.195 191.797 165.195C190.762 165.195 189.902 164.896 189.219 164.297C188.542 163.698 188.203 162.943 188.203 162.031C188.203 160.911 188.617 160.052 189.443 159.453C190.277 158.854 191.478 158.551 193.047 158.545H194.346V157.939C194.346 157.451 194.219 157.061 193.965 156.768C193.717 156.475 193.324 156.328 192.783 156.328C192.308 156.328 191.934 156.442 191.66 156.67C191.393 156.898 191.26 157.21 191.26 157.607H188.438C188.438 156.995 188.626 156.429 189.004 155.908C189.382 155.387 189.915 154.98 190.605 154.688C191.296 154.388 192.07 154.238 192.93 154.238C194.232 154.238 195.264 154.567 196.025 155.225C196.794 155.876 197.178 156.794 197.178 157.979V162.559C197.184 163.561 197.324 164.32 197.598 164.834V165H194.746ZM192.412 163.037C192.829 163.037 193.213 162.946 193.564 162.764C193.916 162.575 194.176 162.324 194.346 162.012V160.195H193.291C191.878 160.195 191.126 160.684 191.035 161.66L191.025 161.826C191.025 162.178 191.149 162.467 191.396 162.695C191.644 162.923 191.982 163.037 192.412 163.037ZM213.066 159.189H207.441V165H204.512V150.781H213.77V153.154H207.441V156.826H213.066V159.189ZM221.396 163.926C220.7 164.772 219.736 165.195 218.506 165.195C217.373 165.195 216.507 164.87 215.908 164.219C215.316 163.568 215.013 162.614 215 161.357V154.434H217.822V161.26C217.822 162.36 218.324 162.91 219.326 162.91C220.283 162.91 220.941 162.578 221.299 161.914V154.434H224.131V165H221.475L221.396 163.926ZM229.238 165H226.406V150H229.238V165ZM234.551 165H231.719V150H234.551V165ZM249.424 161.27C249.424 160.716 249.229 160.293 248.838 160C248.447 159.701 247.744 159.388 246.729 159.062C245.713 158.73 244.909 158.405 244.316 158.086C242.702 157.214 241.895 156.038 241.895 154.561C241.895 153.792 242.109 153.109 242.539 152.51C242.975 151.904 243.597 151.432 244.404 151.094C245.218 150.755 246.13 150.586 247.139 150.586C248.154 150.586 249.059 150.771 249.854 151.143C250.648 151.507 251.263 152.025 251.699 152.695C252.142 153.366 252.363 154.128 252.363 154.98H249.434C249.434 154.329 249.229 153.825 248.818 153.467C248.408 153.102 247.832 152.92 247.09 152.92C246.374 152.92 245.817 153.073 245.42 153.379C245.023 153.678 244.824 154.076 244.824 154.57C244.824 155.033 245.055 155.42 245.518 155.732C245.986 156.045 246.673 156.338 247.578 156.611C249.245 157.113 250.459 157.734 251.221 158.477C251.982 159.219 252.363 160.143 252.363 161.25C252.363 162.48 251.898 163.447 250.967 164.15C250.036 164.847 248.783 165.195 247.207 165.195C246.113 165.195 245.117 164.997 244.219 164.6C243.32 164.196 242.633 163.646 242.158 162.949C241.689 162.253 241.455 161.445 241.455 160.527H244.395C244.395 162.096 245.332 162.881 247.207 162.881C247.904 162.881 248.447 162.741 248.838 162.461C249.229 162.174 249.424 161.777 249.424 161.27ZM257.549 151.836V154.434H259.355V156.504H257.549V161.777C257.549 162.168 257.624 162.448 257.773 162.617C257.923 162.786 258.21 162.871 258.633 162.871C258.945 162.871 259.222 162.848 259.463 162.803V164.941C258.91 165.111 258.34 165.195 257.754 165.195C255.775 165.195 254.766 164.196 254.727 162.197V156.504H253.184V154.434H254.727V151.836H257.549ZM267.051 165C266.921 164.746 266.826 164.43 266.768 164.053C266.084 164.814 265.195 165.195 264.102 165.195C263.066 165.195 262.207 164.896 261.523 164.297C260.846 163.698 260.508 162.943 260.508 162.031C260.508 160.911 260.921 160.052 261.748 159.453C262.581 158.854 263.783 158.551 265.352 158.545H266.65V157.939C266.65 157.451 266.523 157.061 266.27 156.768C266.022 156.475 265.628 156.328 265.088 156.328C264.613 156.328 264.238 156.442 263.965 156.67C263.698 156.898 263.564 157.21 263.564 157.607H260.742C260.742 156.995 260.931 156.429 261.309 155.908C261.686 155.387 262.22 154.98 262.91 154.688C263.6 154.388 264.375 154.238 265.234 154.238C266.536 154.238 267.568 154.567 268.33 155.225C269.098 155.876 269.482 156.794 269.482 157.979V162.559C269.489 163.561 269.629 164.32 269.902 164.834V165H267.051ZM264.717 163.037C265.133 163.037 265.518 162.946 265.869 162.764C266.221 162.575 266.481 162.324 266.65 162.012V160.195H265.596C264.183 160.195 263.431 160.684 263.34 161.66L263.33 161.826C263.33 162.178 263.454 162.467 263.701 162.695C263.949 162.923 264.287 163.037 264.717 163.037ZM276.045 162.92C276.566 162.92 276.989 162.777 277.314 162.49C277.64 162.204 277.809 161.823 277.822 161.348H280.469C280.462 162.064 280.267 162.721 279.883 163.32C279.499 163.913 278.971 164.375 278.301 164.707C277.637 165.033 276.901 165.195 276.094 165.195C274.583 165.195 273.392 164.717 272.52 163.76C271.647 162.796 271.211 161.468 271.211 159.775V159.59C271.211 157.962 271.644 156.663 272.51 155.693C273.376 154.723 274.564 154.238 276.074 154.238C277.396 154.238 278.454 154.616 279.248 155.371C280.049 156.12 280.456 157.119 280.469 158.369H277.822C277.809 157.822 277.64 157.38 277.314 157.041C276.989 156.696 276.559 156.523 276.025 156.523C275.368 156.523 274.87 156.764 274.531 157.246C274.199 157.721 274.033 158.496 274.033 159.57V159.863C274.033 160.951 274.199 161.732 274.531 162.207C274.863 162.682 275.368 162.92 276.045 162.92ZM285.918 160.762L284.902 161.777V165H282.08V150H284.902V158.311L285.449 157.607L288.154 154.434H291.543L287.725 158.838L291.875 165H288.633L285.918 160.762ZM297.93 165V150.781H302.305C303.555 150.781 304.671 151.064 305.654 151.631C306.644 152.191 307.415 152.992 307.969 154.033C308.522 155.068 308.799 156.247 308.799 157.568V158.223C308.799 159.544 308.525 160.719 307.979 161.748C307.438 162.777 306.673 163.574 305.684 164.141C304.694 164.707 303.577 164.993 302.334 165H297.93ZM300.859 153.154V162.646H302.275C303.421 162.646 304.297 162.272 304.902 161.523C305.508 160.775 305.817 159.704 305.83 158.311V157.559C305.83 156.113 305.531 155.02 304.932 154.277C304.333 153.529 303.457 153.154 302.305 153.154H300.859ZM315.615 165.195C314.066 165.195 312.803 164.72 311.826 163.77C310.856 162.819 310.371 161.553 310.371 159.971V159.697C310.371 158.636 310.576 157.689 310.986 156.855C311.396 156.016 311.976 155.371 312.725 154.922C313.48 154.466 314.339 154.238 315.303 154.238C316.748 154.238 317.884 154.694 318.711 155.605C319.544 156.517 319.961 157.809 319.961 159.482V160.635H313.232C313.324 161.325 313.597 161.878 314.053 162.295C314.515 162.712 315.098 162.92 315.801 162.92C316.888 162.92 317.738 162.526 318.35 161.738L319.736 163.291C319.313 163.89 318.74 164.359 318.018 164.697C317.295 165.029 316.494 165.195 315.615 165.195ZM315.293 156.523C314.733 156.523 314.277 156.712 313.926 157.09C313.581 157.467 313.359 158.008 313.262 158.711H317.188V158.486C317.174 157.861 317.005 157.38 316.68 157.041C316.354 156.696 315.892 156.523 315.293 156.523ZM325.391 161.553L327.354 154.434H330.303L326.738 165H324.043L320.479 154.434H323.428L325.391 161.553ZM336.279 165.195C334.73 165.195 333.467 164.72 332.49 163.77C331.52 162.819 331.035 161.553 331.035 159.971V159.697C331.035 158.636 331.24 157.689 331.65 156.855C332.061 156.016 332.64 155.371 333.389 154.922C334.144 154.466 335.003 154.238 335.967 154.238C337.412 154.238 338.548 154.694 339.375 155.605C340.208 156.517 340.625 157.809 340.625 159.482V160.635H333.896C333.988 161.325 334.261 161.878 334.717 162.295C335.179 162.712 335.762 162.92 336.465 162.92C337.552 162.92 338.402 162.526 339.014 161.738L340.4 163.291C339.977 163.89 339.404 164.359 338.682 164.697C337.959 165.029 337.158 165.195 336.279 165.195ZM335.957 156.523C335.397 156.523 334.941 156.712 334.59 157.09C334.245 157.467 334.023 158.008 333.926 158.711H337.852V158.486C337.839 157.861 337.669 157.38 337.344 157.041C337.018 156.696 336.556 156.523 335.957 156.523ZM345.215 165H342.383V150H345.215V165ZM347.109 159.619C347.109 158.571 347.311 157.637 347.715 156.816C348.118 155.996 348.698 155.361 349.453 154.912C350.215 154.463 351.097 154.238 352.1 154.238C353.525 154.238 354.688 154.674 355.586 155.547C356.491 156.419 356.995 157.604 357.1 159.102L357.119 159.824C357.119 161.445 356.667 162.747 355.762 163.73C354.857 164.707 353.643 165.195 352.119 165.195C350.596 165.195 349.378 164.707 348.467 163.73C347.562 162.754 347.109 161.426 347.109 159.746V159.619ZM349.932 159.824C349.932 160.827 350.12 161.595 350.498 162.129C350.876 162.656 351.416 162.92 352.119 162.92C352.803 162.92 353.337 162.66 353.721 162.139C354.105 161.611 354.297 160.771 354.297 159.619C354.297 158.636 354.105 157.874 353.721 157.334C353.337 156.794 352.796 156.523 352.1 156.523C351.41 156.523 350.876 156.794 350.498 157.334C350.12 157.868 349.932 158.698 349.932 159.824ZM368.369 159.814C368.369 161.442 367.998 162.747 367.256 163.73C366.52 164.707 365.524 165.195 364.268 165.195C363.2 165.195 362.337 164.824 361.68 164.082V169.062H358.857V154.434H361.475L361.572 155.469C362.256 154.648 363.148 154.238 364.248 154.238C365.55 154.238 366.562 154.72 367.285 155.684C368.008 156.647 368.369 157.975 368.369 159.668V159.814ZM365.547 159.609C365.547 158.626 365.371 157.868 365.02 157.334C364.674 156.8 364.17 156.533 363.506 156.533C362.62 156.533 362.012 156.872 361.68 157.549V161.875C362.025 162.572 362.64 162.92 363.525 162.92C364.873 162.92 365.547 161.816 365.547 159.609ZM374.99 165.195C373.441 165.195 372.178 164.72 371.201 163.77C370.231 162.819 369.746 161.553 369.746 159.971V159.697C369.746 158.636 369.951 157.689 370.361 156.855C370.771 156.016 371.351 155.371 372.1 154.922C372.855 154.466 373.714 154.238 374.678 154.238C376.123 154.238 377.259 154.694 378.086 155.605C378.919 156.517 379.336 157.809 379.336 159.482V160.635H372.607C372.699 161.325 372.972 161.878 373.428 162.295C373.89 162.712 374.473 162.92 375.176 162.92C376.263 162.92 377.113 162.526 377.725 161.738L379.111 163.291C378.688 163.89 378.115 164.359 377.393 164.697C376.67 165.029 375.869 165.195 374.99 165.195ZM374.668 156.523C374.108 156.523 373.652 156.712 373.301 157.09C372.956 157.467 372.734 158.008 372.637 158.711H376.562V158.486C376.549 157.861 376.38 157.38 376.055 157.041C375.729 156.696 375.267 156.523 374.668 156.523ZM386.885 157.08C386.501 157.028 386.162 157.002 385.869 157.002C384.801 157.002 384.102 157.363 383.77 158.086V165H380.947V154.434H383.613L383.691 155.693C384.258 154.723 385.042 154.238 386.045 154.238C386.357 154.238 386.65 154.281 386.924 154.365L386.885 157.08Z" fill="white"/>
</svg>
